<?xml version="1.0" encoding="utf-8"?>
<!-- Generator: Adobe Illustrator 23.0.3, SVG Export Plug-In . SVG Version: 6.00 Build 0)  -->
<svg version="1.1" xmlns="http://www.w3.org/2000/svg" xmlns:xlink="http://www.w3.org/1999/xlink" x="0px" y="0px"
	 viewBox="0 0 720 360" style="enable-background:new 0 0 720 360;" xml:space="preserve">
<style type="text/css">
	.st0{stroke:#000000;stroke-width:0.25;}
	.st1{fill:#414042;stroke:#000000;stroke-width:0.25;}
</style>
<g id="Layer_2">
	<rect x="1" class="st0" width="719" height="361"/>
</g>
<g id="Layer_1">
	<path class="st1" d="M597.9,287.1c4.1,13.1,7.4,26.5,15.5,38c0.8,1.2,2.2,2.2,1.7,3.9c-2.8-0.4-2.8-0.4-4.4-3.3
		c4.9,9.5,5.9,20.2,8.5,30.3c0.5,1.8,0.6,3.6-1.2,5c-0.7,0-1.3,0-2,0c-3.3-2.6-3.9-6.4-4.2-10.2c-0.2-2.6-0.2-5.3-0.5-6.7
		c0.7,3.1,0.7,7.3-1.1,11.5c-0.8,1.9-1.8,3.6-4.3,3.3c1-4.3,2.3-8.6,2.9-13c1.1-8-0.6-15.5-6.4-21.6c-0.8-0.8-1.9-1.4-1.4-2.9
		c3.8,1.8,5.3,5.6,8.2,9.7c-2.2-10.4-4.5-19.3-11.4-26.6c-6.8-7.2-13.2-14.9-18.4-23.5c-5-8.3-8.8-17.1-8.4-27.2
		c0.2-4.8-2-7.8-6.1-9.8c0.2-0.4,0.5-0.7,1-0.7c3.5,1.3,6.2,3.5,6.2,7.6c-0.1,19.2,10.2,33.5,22,47.1c2.5,2.9,4.9,5.8,8,9.4
		c-0.9-7-4.1-12.4-5.3-18.3C596.5,288.1,596,287,597.9,287.1z"/>
	<path class="st1" d="M511,361c-5.8-9.1-13.4-16.9-20.1-25.3c-3.7-4.7-7.4-9.4-10.2-14.7c-4.4-9.9-6.8-20.4-10.6-30.4
		c-2.3-6-5.3-11.6-10.5-15.4c-11-7.9-16.5-19.1-19.8-31.7c-1.5-5.7-3.2-11.5-6.3-16.7c-0.3-0.1-0.7,0.3-0.9-0.1
		c-0.1-0.2,0.2-0.5,0.4-0.7c-3.2-6.8-8.8-10.4-15.9-12.2c-0.2-0.2-0.3-0.3-0.2-0.5c0.1-0.2,0.1-0.3,0.2-0.3
		c8.9,0.8,14.3,6.3,18.2,13.7c3.7,7.1,5.5,14.9,8,22.4c2.7,8.3,6.3,16.1,13.6,21.5c9.2,6.7,14.6,15.8,17.2,26.6
		c4.4,18.4,13.7,34,26.5,47.7c4.6,4.9,9,10.2,12.5,16.1C512.3,361,511.7,361,511,361z"/>
	<path class="st1" d="M279,1c7.5,11.1,16.6,20.7,27.3,28.8c12,9,26.2,10.9,40.3,13.1c8.7,1.4,17.4,2.7,26.1,4.1
		c6.3,1.1,10,5,11.4,11.1c1.7,7.9,3.1,16,4.7,23.9c-0.2,0.5-0.1,1.2-0.9,1.2c-2.6-7.4-2.8-15.3-4.8-22.8c-2.3-8.6-4.7-11-13.4-12.4
		c-13.4-2.2-26.9-4.5-40.3-6.7c-11.7-1.9-21.5-7.6-30.3-15.3c-8.5-7.3-15.8-15.7-22-25C277.7,1,278.3,1,279,1z"/>
	<path class="st1" d="M597,140c23.4,25.9,52.8,42.2,85.5,53.1c7.6,2.5,14.7,6.1,21.7,10c6.9,3.9,12.6,9.2,16.9,15.9c0,1,0,2,0,3
		c-9-15.6-24.4-22.3-40.3-27.8c-30.1-10.6-57.9-25-80.3-48.4c-1.3-1.3-2.4-2.8-3.5-4.1C596.6,141.1,596.6,140.5,597,140z"/>
	<path class="st1" d="M293,1c15.1,15.8,33.2,26.6,54.6,30.7c17.3,3.3,34,8.7,50.9,13.6c7.1,2,14.3,5,16.6,13.4
		c0.3,1,0.9,2.1-0.9,2.2c-0.9-5.9-4.8-9.3-9.9-11.7c-10.3-4.8-21.6-6.6-32.3-10.1c-9.8-3.3-20.1-4.6-30-7.1
		c-19.5-4.9-35.8-15.6-50.2-29.4c-0.4-0.4-0.5-1.1-0.8-1.7C291.7,1,292.3,1,293,1z"/>
	<path class="st1" d="M156,361c-1.5-5.4-3-10.9-4.6-16.2c-1.3-4.4-2.9-8.8-3.9-13.3c-1.6-7.8-6.6-13.2-13.2-17.4
		c-6.8-4.3-14.2-7.1-21.6-10.1c-10.4-4.1-20.3-9.1-28.9-16.4c-0.7-0.5-0.7-1,0.1-1.5c11.4,8.9,24.4,14.6,37.6,19.9
		c8,3.2,15.8,6.9,21.7,13.6c2.6,2.9,4.6,6.2,5.4,10c2.3,10.7,6.6,20.8,9.3,31.4C157.3,361,156.7,361,156,361z"/>
	<path class="st1" d="M528,361c-7.9-17-15.6-34-22.6-51.3c-6.8-16.8-15.1-32.8-26.9-46.7c2.6-0.4,3.2,2,4.4,3.4
		c9.7,11.5,16.4,24.9,22.2,38.6c7.3,17.6,14.8,35,22.9,52.3c0.5,1.2,1.5,2.3,1.1,3.7C528.7,361,528.3,361,528,361z"/>
	<path class="st1" d="M188,361c-3.6-18.6-7.3-37.1-10.8-55.7c-2.5-13.3-8.1-25.2-15.5-36.4c-0.9-1.3-3.1-2.5-1.4-4.7
		c13,16.5,18.2,35.9,21.7,56.1c2.1,12.4,4.6,24.8,6.9,37.2c0.2,1.1,0.1,2.3,0.1,3.5C188.7,361,188.3,361,188,361z"/>
	<path class="st1" d="M230.5,287c3.3-0.1,5.2,2.6,7.7,4c8.2,4.4,17,7.5,25.6,10.9c12.6,5,20.9,13,23.7,26.9
		c1.9,9.5,5.7,18.6,8.6,27.9c0.4,1.4,1.5,2.7,0.9,4.3c-0.3,0-0.7,0-1,0c-4.3-11.9-8.3-23.8-11.2-36.1c-2.3-9.5-8.5-15.7-17.1-19.5
		c-8-3.6-16.3-6.7-24.3-10.3C238.7,293,233.9,291.2,230.5,287z"/>
	<path class="st1" d="M372,361c-6.5-17.2-8.4-35.4-11-53.3c-2.1-14.4-4.7-28.5-13.9-40.3c-0.2-0.3-0.1-0.9-0.1-1.4
		c5.5,4.2,7.8,10.4,10.1,16.5c4.4,11.4,5.1,23.6,7,35.6c2.3,14.6,4,29.3,9.9,43C373.3,361,372.7,361,372,361z"/>
	<path class="st1" d="M179,361c-2.5-10.2-3.4-20.7-4.9-31c-3.4-22.9-10.8-43.5-29.1-59c0.5-0.3,1.1-0.4,1.6-0.1
		c12.7,10.9,21.2,24.3,25.2,40.7c3.9,16.3,5.9,32.9,8.1,49.5C179.7,361,179.3,361,179,361z"/>
	<path class="st1" d="M468,1c4.4,1.4,8.8,2.6,13.1,4.1c6.7,2.4,10.2,7.3,11,14.5c0.7,6.1,1,12.2,0.8,18.4c-0.3,10.4,1.2,20.2,8.9,28
		c-0.1,0.5-0.4,0.8-0.9,0.9c-8.8-7.5-9.4-17.8-9.8-28.2c-0.2-6.6,0.1-13.3-0.8-19.9c-0.9-6.4-4.4-10.3-10.1-12.4
		c-3.9-1.4-8-2.3-11.9-3.4c-1.8-0.5-4-0.3-5.3-2C464.7,1,466.3,1,468,1z"/>
	<path class="st1" d="M435,32.8c-15.3-10.8-32.8-14.6-51-16.8c-5.3-0.6-10.5-1.7-15.6-3c-6.9-1.9-12.7-5.7-16.5-12c0.7,0,1.3,0,2,0
		c5,7.4,12.5,10.4,21,12c14.3,2.8,29.1,3.3,42.8,8.9c6.5,2.6,12.8,5.6,18.2,10.1C435.9,32.4,435.5,32.7,435,32.8z"/>
	<path class="st1" d="M164,361c-3.6-14-6.8-28-10.9-41.9c-2.1-7.1-5.9-12.5-12.3-16.1c-7.5-4.2-15-8.6-21.7-14
		c0.2-0.4,0.5-0.7,1-0.8c7.5,5,15,9.9,22.8,14.3c4.6,2.6,8.4,6.4,10.1,11.4c5.1,15.4,9.5,31.1,12.2,47.2
		C164.7,361,164.3,361,164,361z"/>
	<path class="st1" d="M452.1,21.8c-16.1-4.4-32.2-9.1-48.5-13c-8.3-2-17.1-2.4-25.6-3.8c-3.6-0.6-7.2-1.5-10-4c1.3,0,2.7,0,4,0
		c5.7,3.6,12.3,3.7,18.6,4.2c16.4,1.4,31.7,6.8,47.4,11.1c5.1,1.4,10.4,2.2,15.2,4.6C452.9,21.4,452.5,21.7,452.1,21.8z"/>
	<path class="st1" d="M440,361c-4.7-8-5.8-16.8-6-25.9c-0.2-10.3,0-20.6-2-30.8c-2.1-10.3-5.9-19.7-14.2-26.7
		c-0.4-0.3-0.6-0.8-0.9-1.2c0-0.1,0.1-0.2,0.3-0.7c4.3,2.4,7.2,6.1,9.6,10.2c5.5,9,7.4,19.1,8,29.5c0.5,8.3,0.2,16.6,0.9,24.9
		c0.6,7.4,2.2,14.4,6.2,20.7C441.3,361,440.7,361,440,361z"/>
	<path class="st1" d="M48,226c-4.7-2.8-7.3-7.4-10.2-11.7c-11.9-18.1-22-37.4-33-56.1c-1.2-2.1-2.6-4.2-3.9-6.3c0-0.7,0-1.3,0-2
		c5.1,5.5,8,12.4,11.7,18.7c8.6,14.9,17,30,26.2,44.6C41.7,217.8,46,221.1,48,226z"/>
	<path class="st1" d="M519,287.9c6.8,10.6,14.9,20.8,14,34.4c-0.4,5.8,1.3,10.8,4.3,15.5c4.6,7.1,7.1,14.9,8.7,23.1
		c-0.3,0-0.7,0-1,0c-2.7-9.6-6.5-18.7-11.6-27.3c-1.4-2.3-2.2-5-1.7-7.6c1.8-9.2-2.3-16.7-6.1-24.5C523.4,297.1,520,293.1,519,287.9
		z"/>
	<path class="st1" d="M259,361c-9.6-17.8-25.9-27.2-43.5-35.2c-3.9-1.8-8.6-2.1-11.6-5.8c23.1,8,44.3,18.6,57.1,41
		C260.3,361,259.7,361,259,361z"/>
	<path class="st1" d="M428,1c9.9,2.3,19.9,4.3,29.8,6.5c10.1,2.2,16.7,6.5,17,17.6c-0.2,0.5-0.2,1.1-0.9,1.2
		c-0.3-0.7-0.8-1.5-0.9-2.3c-0.2-9.7-6.6-13-14.9-14.9c-12.1-2.8-24.1-5.6-36.5-7c-1-0.1-2,0-2.6-1.1C422,1,425,1,428,1z"/>
	<path class="st1" d="M353.1,299.7c0.2,1.6,0.9,3.3,0.7,4.9c-2.2,19.2,1.4,37.8,5.2,56.4c-0.7,0-1.3,0-2,0c-1.4-8.3-2.8-16.6-4-24.9
		c-1.7-11.4-1-22.8-0.8-34.2C352.7,301.3,352.2,300.2,353.1,299.7z"/>
	<path class="st1" d="M593,1c-1.8,6.6-0.3,9.4,5.9,11c13.9,3.6,26.8,9.2,38.6,17.5c1.5,1,3.2,1.7,4,3.5c-2.2,0.6-3.3-1.2-4.8-2.2
		c-11.1-7.7-23.2-13.3-36.2-16.8c-9.3-2.5-9.9-3.3-9.6-13.1C591.7,1,592.3,1,593,1z"/>
	<path class="st1" d="M320,1c13.3,10.8,28,19,44.5,23.9c1.9,0.6,3.7,1.3,5.5,2c0.4,0.2,0.5,0.4,0.4,0.6c-0.1,0.2-0.3,0.3-0.4,0.3
		c-19.9-4.6-37.1-14.5-53-26.9C318,1,319,1,320,1z"/>
	<path class="st1" d="M190.9,322c5.6,21.1,1,15.1,20.3,26.6c6.7,4,13.8,7.2,19.8,12.3c-1,0-2,0-3,0c-4-4.1-9.4-6.1-14.1-9
		c-2.7-1.7-5.3-3.6-8.2-4.7c-11.4-4.2-14.7-13.4-15.8-24.1C189.4,322,190,321.9,190.9,322z"/>
	<path class="st1" d="M1,41c17.6,6.2,35.9,9.3,54.4,11.8c-0.1,0.8-0.8,0.7-1.3,1C37,52.2,20.2,49.1,3.9,43.6C3,43.2,2,43.2,1,43
		C1,42.3,1,41.7,1,41z"/>
	<path class="st1" d="M195,41.1c-3.2-1.4-4.5-4.7-6.6-7.1c-10-11.6-23.1-19.5-34.6-29.3c-1.3-1.1-3.3-1.7-3.9-3.6c0.7,0,1.3,0,2,0
		c9.7,7.7,19.5,15.2,28.9,23.3C186.4,29.1,191.9,34.1,195,41.1z"/>
	<path class="st1" d="M21,1c7.1,4.7,15.3,5.4,23.3,7C52.2,9.5,60.2,8,68,9.9c1.1,0.9,2.3,1.8,4.4,3.4c-16-5.4-32.3-1.5-46.9-8.2
		C22.9,3.9,19.8,3.7,18,1C19,1,20,1,21,1z"/>
	<path class="st1" d="M249.3,319.7c11.1,4.7,19.6,12,24,23.6c2.3,6,5.1,11.8,7.7,17.7c-0.7,0-1.3,0-2,0c-3.5-8-6.5-16.2-10.5-23.9
		c-4.2-8.1-12.2-12.2-19.8-16.7C248.3,319.5,248.5,319.3,249.3,319.7z"/>
	<path class="st1" d="M121,1c1.7,2.3,4.3,2.9,6.7,3.8c12.5,5,24.1,11.9,35.7,18.6c1,0.6,2.6,0.8,2.6,2.6c-4-0.8-7-3.5-10.4-5.4
		c-10.4-5.8-20.9-11.4-31.9-15.9C121.6,3.9,119.4,3,118,1C119,1,120,1,121,1z"/>
	<path class="st1" d="M656,1c5.8,7,10.7,14.5,14.6,22.8c3.3,7.1,8.5,12.9,13,19.2c-2,0.6-2.5-1.3-3.4-2.3
		c-4.3-5.1-8.3-10.5-11.1-16.5c-4-8.5-9-16.2-15.1-23.3C654.7,1,655.3,1,656,1z"/>
	<path class="st1" d="M170,361c-1.5-14.5-4.4-28.7-6.8-43.1c0.3-0.4,0.2-1.1,1-1.2c3.4,12.6,4.6,25.6,6.9,38.4
		c0.4,1.9,0.6,3.9,0.9,5.8C171.3,361,170.7,361,170,361z"/>
	<path class="st1" d="M307,361c-0.8-11.5,1.1-22.7,3.9-33.8c0.8-3.1,1.3-6.1,1.3-9.3c0.3-0.4,0.2-1.2,1.1-1.2
		c1.9,3.3,0.3,6.5-0.5,9.6c-2.5,9.6-4,19.4-4.2,29.3c0,1.8,0.3,3.6,0.5,5.4C308.3,361,307.7,361,307,361z"/>
	<path class="st1" d="M47,34.3C30.8,30.8,15.5,24.9,1,17c0-0.7,0-1.3,0-2c14.3,8.6,29.9,13.9,46,18.1C47.3,33.5,47.3,33.9,47,34.3z"
		/>
	<path class="st1" d="M101.1,326.9c10,2,18.2,6.2,22.5,16.3c2.5,6,6.6,11.4,8.4,17.8c-0.3,0-0.7,0-1,0c-3-5.8-6.5-11.5-9-17.6
		c-4.1-10-12.6-13.2-21.9-15.7C100,327,100,326.3,101.1,326.9z"/>
	<path class="st1" d="M100,1c4.6,6.8,11.1,11,18.7,13.9c6.8,2.6,13.9,4.9,19.3,10.1c-13.6-7.5-30.6-9.5-40.1-24C98.7,1,99.3,1,100,1
		z"/>
	<path class="st1" d="M145,361c-3.5-8.4-7.4-16.6-12.1-24.4c-2.7-4.5-5.8-8.4-9.8-11.7c-0.2-0.8-0.1-1.4,1-0.9
		c7,4.8,10.5,12.2,14.4,19.4c3,5.6,6.3,11.3,7.6,17.6C145.7,361,145.3,361,145,361z"/>
	<path class="st1" d="M689.6,39c-3.1-0.2-4-3-5.5-4.9C676.4,24.2,671.8,12.8,668,1c0.7,0,1.3,0,2,0c3.2,12.7,8.9,24.1,16.9,34.5
		C687.9,36.6,688.7,37.8,689.6,39z"/>
	<path class="st1" d="M548,1c6.5,12.3,13,24.7,22.6,35c-0.9,0.4-1.5-0.1-2.2-0.7C558.8,25.4,552.3,13.6,547,1C547.3,1,547.7,1,548,1
		z"/>
	<path class="st1" d="M329.8,321.9c-1,11.4-4.5,22.4-6.3,33.6c-0.3,1.8-0.4,3.6-0.6,5.4c-0.7,0-1.3,0-2,0
		c2.6-13.4,5.2-26.8,7.8-40.2C329.6,320.8,329.5,321.5,329.8,321.9z"/>
	<path class="st1" d="M111.7,22.2c-3.8-0.5-7.5-0.9-11.3-1.4c-5.3-0.8-9.6-3.5-12.7-7.8C85,9.1,82.6,5,80,1c0.7,0,1.3,0,2,0
		c2,4.2,4.7,7.9,7.5,11.6c3.1,4.2,7.5,6.3,12.6,7c3.6,0.5,7.2,1,10.8,1.5C113.1,22.1,112.8,22.6,111.7,22.2z"/>
	<path class="st1" d="M692,95.9c1.9,0,2.2,1.8,3,2.9c7.2,9.7,15.7,17.9,26.1,24.2c0,0.3,0,0.7,0,1C708.4,117.6,698.9,108.2,692,95.9
		z"/>
	<path class="st1" d="M25.6,360c-5.8-0.7-9.4-5-13.4-8.5C7.1,347,4.2,340.9,1,335c0-1.3,0-2.7,0-4c1.5,0.5,1.4,2.1,1.9,3.2
		c3.5,9.7,9.8,17,18.4,22.6C22.7,357.9,24.1,359,25.6,360z"/>
	<path class="st1" d="M35.8,42.1C25,40.3,14.9,36.4,5,31.8c-1.3-0.6-2.7-1.2-4-1.8c0-0.7,0-1.3,0-2c11.4,6,23.4,10.4,35.9,13.1
		C37.1,42,36.9,42.6,35.8,42.1z"/>
	<path class="st1" d="M682.1,339.9c5.6,1.9,9.9,5.8,14.6,9.1c5.5,3.9,10.9,8,16.3,12c-1,0-2,0-3,0c-9.3-7.3-18.4-14.7-28.9-20.2
		C680.9,340,681,339.4,682.1,339.9z"/>
	<path class="st1" d="M531,1c4.4,5.3,7.7,11.2,10.8,17.2c2.9,5.6,4.2,11.5,3.1,17.8c-0.4,0.3-0.7,0.4-1.1,0
		c1.6-10.2-3.8-18.1-8.4-26.3c-1.7-3-4.4-5.3-5.4-8.7C530.3,1,530.7,1,531,1z"/>
	<path class="st1" d="M687,1c2.9,11.2,5.5,22.4,14.1,31c-2.6,0.1-3.7-1.9-4.9-3.6c-5.9-8.2-8.8-17.6-10.1-27.5
		C686.3,1,686.7,1,687,1z"/>
	<path class="st1" d="M1,3c2.9,0.1,4.5,2.5,6.7,3.8c7.9,4.7,16.4,8,25.2,10.3c0.2,0.3,0.3,0.5,0.2,0.8c-0.1,0.3-0.2,0.4-0.2,0.4
		C21.2,16.1,10.6,11.1,1,4C1,3.7,1,3.3,1,3z"/>
	<path class="st1" d="M659,361c-1.7-0.6-3.4-1.1-5.1-1.7c-0.8-0.4-0.8-0.8,0-1.2c6.4,1.4,12.8,0.9,19.2,0.8c5,0,10.2-0.9,14.8,2.1
		c-2.3,0-4.7,0-7,0c-4-0.8-8-0.8-12,0C665.7,361,662.3,361,659,361z"/>
	<path class="st1" d="M211.6,26.3c-7.7-7.9-15-16.1-23.4-23.3c-0.6-0.5-1.3-1-1.2-2c0.7,0,1.3,0,2,0c5.9,6,11.7,11.9,17.5,17.9
		c2.1,2.1,3.9,4.5,5.8,6.7C212.7,26.5,212.4,26.7,211.6,26.3z"/>
	<path class="st1" d="M590,327.1c3.8,2.2,3.4,5.1,1.4,8.4c-4.8,7.9-7.6,16.4-8.4,25.6c-0.3,0-0.7,0-1,0c-0.6-9.3,3.3-17.3,7.5-25.1
		c1.3-2.5,2.2-4.8,0.4-7.3C589.2,328.1,589.2,327.6,590,327.1z"/>
	<path class="st1" d="M342.8,326c-0.7,11.7-1.1,23.4,0.2,35c-0.7,0-1.3,0-2,0c0-10.3,0-20.6,0-30.9c0-1.8-0.2-3.7,0.8-5.4
		C342.6,324.8,342.5,325.5,342.8,326z"/>
	<path class="st1" d="M561.8,331c-2,10.5,2.1,20.1,4.2,30c-0.7,0-1.3,0-2,0c-1.2-5.6-2.4-11.3-3.6-16.9c-0.9-4.4-1.1-8.8,0.5-13.1
		C561.2,330.2,561.5,330.2,561.8,331z"/>
	<path class="st1" d="M702,1c1.1,11.5,8.6,16.7,19,19c0,0.3,0,0.7,0,1c-12.2-1.2-18.9-8.2-21-20C700.7,1,701.3,1,702,1z"/>
	<path class="st1" d="M574,1c4.3,9.5,6.6,20.1,14,28c-3.6-0.8-5.2-3.9-6.7-6.6c-3.7-6.7-6.3-14-8.4-21.4C573.3,1,573.7,1,574,1z"/>
	<path class="st1" d="M28,84.4c-3.3-4.6-8.5-6.6-13.2-9.1C10.4,72.9,5.6,71.1,1,69c0-0.7,0-1.3,0-2c8.8,4.2,17.7,7.9,25.6,13.7
		C27.7,81.5,30.6,82.1,28,84.4z"/>
	<path class="st1" d="M416.8,331c-0.2,8.4-3,16.7-0.9,25.2c0.4,1.6,0.7,3.2,1.1,4.8c-0.7,0-1.3,0-2,0c-2.1-10.1-1.2-20.1,0.9-30
		C416.2,330.2,416.5,330.2,416.8,331z"/>
	<path class="st1" d="M76,361c-8.4-4.8-17-9.2-26.9-10.1c-0.1-1.9,1-1.3,2.1-1c10.3,1.2,19.2,5.8,27.9,11.1C78,361,77,361,76,361z"
		/>
	<path class="st1" d="M721,58c-10-3-19.9-6.3-27.6-14c1.8-0.6,2.7,0.9,3.8,1.7c7.2,5.2,15.6,8,23.7,11.3C721,57.3,721,57.7,721,58z"
		/>
	<path class="st1" d="M1,275c3.2,2.9,4.6,6.6,4,10.7c-0.7,4.9-1.8,9.8-4,14.3c0-2,0-4,0-6c1.4-5.3,1.7-10.7,0-16C1,277,1,276,1,275z
		"/>
	<path class="st1" d="M570,25c-7.3-6.4-10.8-14.9-13-24c0.3,0,0.7,0,1,0C560.6,9.7,565.5,17.3,570,25z"/>
	<path class="st1" d="M13.1,275c-1.9-7.4-5.4-13.7-12.1-18c0-0.3,0-0.7,0-1c8,3.3,11.1,10.1,13.2,17.8C14.6,274.9,14,275.1,13.1,275
		z"/>
	<path class="st1" d="M703,72.4c6.7,4.8,11.7,11.4,18,16.6c0,0.7,0,1.3,0,2c-5.8-5.5-11.5-11-17.3-16.4
		C703.1,74,702.7,73.3,703,72.4z"/>
	<path class="st1" d="M700.5,139c7.8,3.3,14.4,8.2,20.5,14c0,0.7,0,1.3,0,2C715.4,148.2,706.8,145.1,700.5,139z"/>
	<path class="st1" d="M721,207c-6.5-5.5-13.1-10.9-19-17c6,2.5,10.1,7.6,15,11.6c1.4,1.1,2.2,2.9,4.1,3.4
		C721,205.7,721,206.3,721,207z"/>
	<path class="st1" d="M206,1c4.9,5.9,11.2,10.7,15.6,17c-2.6,0.1-3.4-2.3-4.8-3.7C212.4,9.9,208.2,5.4,204,1C204.7,1,205.3,1,206,1z
		"/>
	<path class="st1" d="M403,361c-0.7-4.1-3.6-6.5-6.7-8.7c-3.3-2.4-7.2-4-9.9-7.3c7.2,3.9,15.8,6.2,17.6,16
		C403.7,361,403.3,361,403,361z"/>
	<path class="st1" d="M701,32c6.7,2.7,13.4,5.4,20,8c0,0.7,0,1.3,0,2c-5.3-2.3-10.7-4.6-16-7C703.5,34.3,701.4,34.1,701,32z"/>
	<path class="st1" d="M520,1c2.6,6.7,3.8,13.7,2.8,20.9c-0.9,0.1-1.5,0-1-1.1C522.2,13.9,521,7.3,518,1C518.7,1,519.3,1,520,1z"/>
	<path class="st1" d="M705,294c6,2.3,10.2,7.5,16,10c0,0.7,0,1.3,0,2C715.5,302.2,709.2,299.4,705,294z"/>
	<path class="st1" d="M702.9,334c6.7,1.7,11.9,6.3,18.1,9c0,0.3,0,0.7,0,1C714.5,341.6,708.4,338.4,702.9,334z"/>
	<path class="st1" d="M237,13c-5.9-3.3-10.7-8-16-12c1,0,2,0,3,0c2.7,3.6,7,5.3,10,8.5C235.1,10.6,237,11,237,13z"/>
	<path class="st1" d="M468.4,355c6.1,1.3,12.3,2.4,17.6,6c-1.3,0-2.7,0-4,0c-2.4-2.2-5.6-2.4-8.5-3.3
		C471.7,357.1,469.5,357,468.4,355z"/>
	<path class="st1" d="M15,106.6c-4.7-3.2-9.4-6.4-14-9.6c0-0.7,0-1.3,0-2c4,2.8,8.1,5.6,12.1,8.5C14.1,104.3,15.5,104.8,15,106.6z"
		/>
	<path class="st1" d="M13.1,220.1C8.2,217.3,5.6,212,1,209c0-0.7,0-1.3,0-2C5.5,210.9,10.1,214.7,13.1,220.1z"/>
	<path class="st1" d="M114,361c-2-4.5-5.3-8-8.9-11.1c-0.2-0.9-0.1-1.4,1-0.9c4.3,3.2,7.4,7.4,10,12C115.3,361,114.7,361,114,361z"
		/>
	<path class="st1" d="M634,1c2.2,3.7,6.8,5.6,8,10.1c-3.9-2.8-7-6.4-10-10.1C632.7,1,633.3,1,634,1z"/>
	<path class="st1" d="M177,1c1.6,3.3,5.3,4.6,6.9,7.9c-3.4-2.1-6.8-4.3-8.9-7.9C175.7,1,176.3,1,177,1z"/>
	<path class="st1" d="M11.8,59.2C8.2,58.1,4.6,57.1,1,56c0-0.3,0-0.7,0-1c4.2,0.1,7.8,2.5,11.9,3.2C13,59.1,12.8,59.6,11.8,59.2z"/>
	<path class="st1" d="M338,1c2,2.4,4,4.7,6,7.1c0.2,0.9,0.1,1.3-0.9,0.9c-2.5-2.3-5.3-4.4-6-8C337.3,1,337.7,1,338,1z"/>
	<path class="st1" d="M270,1c0.4,3.2,4,4.7,4,8.1c-3.1-1.9-4.4-5.1-6-8.1C268.7,1,269.3,1,270,1z"/>
	<path class="st1" d="M628,361c-0.5-1.3-0.9-2.5-1.4-3.8c0.7-1.1-0.1-3.2,2.2-3.1c0.4,2.3,0.8,4.6,1.2,6.9
		C629.3,361,628.7,361,628,361z"/>
	<path class="st1" d="M1,228c3.2,1,5.6,3,7.1,6.1c-3.1-0.6-4.4-3.7-7.1-5.1C1,228.7,1,228.3,1,228z"/>
	<path class="st1" d="M172.6,7c-3.7-0.5-5.5-3.5-7.6-6c0.7,0,1.3,0,2,0C168.9,3,170.7,5,172.6,7z"/>
	<path class="st1" d="M713.9,285.9c2.9,0.4,4.6,2.8,7.1,4.1c0,0.3,0,0.7,0,1C718.1,290.1,715.4,288.8,713.9,285.9z"/>
	<path class="st1" d="M6.1,189.1c-2.6-0.2-2.7-3.5-5.1-4.1c0-0.7,0-1.3,0-2C3.5,184.4,5.3,186.3,6.1,189.1z"/>
	<path class="st1" d="M286.2,147.6c8.6,7.5,15.3,16.1,19.9,26.4c3.6,8.2,7.3,16.4,10.9,24.6c1.5,3.4,3.6,6.4,6.3,8.9
		c6,5.5,10.2,12.2,13.4,19.6c2.5,5.9,6.4,10.8,11,15.2c17.8,17,30,38,41.3,59.6c1.8,3.5,3.6,7,5.7,11.2c-2.6-0.7-2.9-2.6-3.7-4
		c-10.4-20.3-20.9-40.6-36.6-57.4c-9.4-10-18.7-19.8-23.7-32.9c-0.6-1.7-1.8-3.3-3.1-4.5c-9.6-8.2-14.6-19.2-19-30.6
		c-4.9-12.6-11.3-24-21.4-33.3C286.6,149.9,285.5,149.3,286.2,147.6z"/>
	<path class="st1" d="M281,169.1c-7.3-7.5-13.1-16.1-18.2-25.1c-15-26.4-29.6-53-44.3-79.6c-0.5-0.9-1-1.7-0.6-2.8
		c3.1,2.7,4.5,6.5,6.3,10c12,23.4,25.7,45.8,38.2,68.8c4.5,8.4,10.5,15.7,15.9,23.5C279.4,165.5,281.2,166.8,281,169.1z"/>
	<path class="st1" d="M426,250c10,8.4,15.1,19.7,19,31.6c4.2,12.8,6.6,26.1,9.9,39.1c2.9,11.3,6.6,22.3,12.7,32.3
		c-3.3-0.3-3.7-3.4-4.8-5.5c-6-11.4-8.9-23.9-11.8-36.3c-2.9-12.4-5.5-24.9-10.3-36.8c-3.6-8.9-8.5-16.9-15.6-23.4
		C424.8,250.1,425,249.5,426,250z"/>
	<path class="st1" d="M385,343.6c-3.1-2-4.1-5.1-4.5-8.5c-3.8-30.7-17.9-56.6-36.4-80.7c-1.5-2-3.9-3.6-4.1-6.5
		c0.8-0.3,1.2,0.3,1.6,0.8c18.2,22.8,33.3,47.2,38.8,76.4C381.5,331.4,382.3,337.7,385,343.6z"/>
	<path class="st1" d="M316,127c0.8-0.3,1.2,0.3,1.6,0.8c16.9,22.3,26.8,47.5,31.6,74.9c0.5,1,0,1.3-1,1.3
		c-5.5-27.1-14.7-52.5-31.5-74.8C316.2,128.5,315.5,127.9,316,127z"/>
	<path class="st1" d="M367.6,254.4c-15.5-10.4-24.7-25.1-29.6-42.8c-1.8-6.4-3.2-12.9-4-19.6c5.1,24.2,13.2,46.6,34.3,61.7
		C368.7,254.4,368.5,254.7,367.6,254.4z"/>
	<path class="st1" d="M313.1,221.8c-7.2-1.1-14.5-1.4-21.7-1.7c-6.6-0.2-7.8-2.1-5.7-8.5c2.5-7.7,4.9-15.4,4.5-23.7
		c0.3-0.4,0.3-1.1,1-1.1c1.9,5,0.1,9.8-0.9,14.5c-0.7,3.1-1.6,6.1-2.6,9c-2.5,7.6-1.9,8.4,6.4,8.5c6.7,0.1,13.5-0.4,20,2.1
		C313.8,221.4,313.5,221.7,313.1,221.8z"/>
	<path class="st1" d="M261.6,94.3c-11.3-16-22.6-32-34-48c-0.3-0.9,0-1.1,0.8-0.7c12,15.5,22.9,31.8,34,48
		C262.7,94.5,262.4,94.7,261.6,94.3z"/>
	<path class="st1" d="M296.7,130.3c-14.5-9.2-26-21.5-35.1-36c0.3-0.2,0.5-0.5,0.8-0.7c9.3,13,19.5,25.2,33,34.2
		c0.5,0.4,1.1,0.7,1.7,1l0.1,0.1c0.1,0.2,0.1,0.5,0.1,0.7c0.1,0.3,0.2,0.6,0.3,0.9C297.3,130.5,297,130.4,296.7,130.3z"/>
	<path class="st1" d="M368.4,253.6c13.8,9.8,30.4,13.5,46,19.3c-0.2,0.4-0.3,0.8-0.5,1.2c-9.4-3.2-18.8-6.2-28.1-9.6
		c-6.5-2.4-12.7-5.7-18.1-10.1C367.9,254.1,368.1,253.9,368.4,253.6z"/>
	<path class="st1" d="M279.9,94.9c3.4,0.5,6.1,2.5,8.7,4.5c9.7,7.1,18.5,15.3,26,24.7c0.7,0.9,1.9,1.5,1.4,2.9
		c-2.2-0.4-2.9-2.5-4.1-3.9c-9-10.2-18.6-19.7-30.6-26.5C280.7,96.3,279.8,96,279.9,94.9z"/>
	<path class="st1" d="M314.4,144.7c10.5,11.3,14.6,25.5,17.7,40.2c-4.5-13.9-9.1-27.8-18.5-39.5
		C313.3,144.5,313.6,144.3,314.4,144.7z"/>
	<path class="st1" d="M259.6,114.3c-8.6-12.3-16.3-25.1-23.9-37.9c-0.3-0.9,0-1.1,0.8-0.7c8,12.7,15.9,25.3,23.9,38
		C260.6,114.5,260.4,114.7,259.6,114.3z"/>
	<path class="st1" d="M426,250c-0.3,0.3-0.7,0.6-1,1c-10-8.6-22.3-11.3-34.9-12.9c-1.5-0.2-2.9-0.6-4.3-0.9c0.1-0.7,0.8-0.7,1.2-0.9
		c9.6,1.5,19.4,2.3,28.4,6.7C419.2,244.8,422.9,247,426,250z"/>
	<path class="st1" d="M387,236.2c-0.4,0.3-0.8,0.6-1.2,0.9c-8.9-0.6-17.6-2.4-25.5-6.8c-1.9-1.1-3.7-2.1-4.4-4.4
		C365.3,232.5,376,234.7,387,236.2z"/>
	<path class="st1" d="M262,69.9c4.6,3.6,6.6,9.1,10,13.6c2.8,3.7,5.4,7.6,8.1,11.5c-1.2,0.4-2-0.3-2.5-1
		C271.9,86.3,266.1,78.6,262,69.9z"/>
	<path class="st1" d="M234,32.9c4.8,3.1,7.4,8.1,10.8,12.3c2.7,3.4,6,6.4,7.3,10.8c-4.3-2.9-6.6-7.7-9.7-11.7
		C239.5,40.7,235.7,37.6,234,32.9z"/>
	<path class="st1" d="M266.4,123.7c5,7.4,10.6,14.4,16.6,21.1c-6.9-5.8-13.1-12.3-17.3-20.4C265.3,123.5,265.6,123.3,266.4,123.7z"
		/>
	<path class="st1" d="M348.2,204c0.3-0.4,0.6-0.9,1-1.3c0.6,3.1,1.5,6.1,1.9,9.2c0.6,5.2,2.7,9.7,5,14.2c-4.5-2-5-6.4-5.9-10.4
		C349.2,211.8,348.8,207.8,348.2,204z"/>
	<path class="st1" d="M227.6,46.4c-5.3-6.7-10.7-13.4-16-20c0.3-0.2,0.5-0.5,0.8-0.7c5.8,6.3,11.2,12.9,16.1,20
		C228.2,45.9,227.9,46.1,227.6,46.4z"/>
	<path class="st1" d="M223.4,55.7c4.8,6.4,9.1,13,13,20c-0.3,0.2-0.5,0.5-0.8,0.7c-4.3-6.7-8.6-13.3-13-20
		C222.3,55.5,222.6,55.3,223.4,55.7z"/>
	<path class="st1" d="M210.6,49c-1.6,0.6-2-0.8-2.5-1.7c-3.3-5.7-8.3-10.3-11.1-16.4C202.8,36,206.7,42.5,210.6,49z"/>
	<path class="st1" d="M291.2,186.8c-0.3,0.4-0.7,0.8-1,1.1c-1.3-5.4-4.6-9.9-7.2-14.7c-0.8-1.4-2.4-2.4-2-4.3
		C286,174,289.1,180.1,291.2,186.8z"/>
	<path class="st1" d="M205.5,33.3c-4.3-4.9-8.5-9.9-12.8-14.8C198.2,22.2,202.5,27.2,205.5,33.3z"/>
	<path class="st1" d="M222,18.4c4.4,4.5,9.2,8.8,12.1,14.6C229.3,28.8,224.7,24.4,222,18.4z"/>
	<path class="st1" d="M416.8,331c0,0-0.5,0-0.5,0l-0.5,0c0-5.6,0.1-11.2,0-16.7c0-1.8,0.4-3.7-1.1-5.1c-0.4-0.4-0.3-0.8,0.1-1.2
		c2.2,0.5,2.2,2.2,2.2,3.8C417.1,318.1,417,324.6,416.8,331z"/>
	<path class="st1" d="M252,55.9c4.4,3.9,7.7,8.7,10.1,14.1C257.7,66,254.4,61.3,252,55.9z"/>
	<path class="st1" d="M313.1,221.8c0.3-0.3,0.7-0.6,1-0.9c5.9,1.1,9.7,4.7,12,10.1C321.6,228.2,319.1,222.5,313.1,221.8z"/>
	<path class="st1" d="M307.6,139.4c-3.7-3-7.3-6.1-11-9.1c0.2-0.2,0.4-0.4,0.6-0.7c4.1,2.5,7.7,5.6,11.1,9
		C308.7,139.5,308.5,139.7,307.6,139.4z"/>
	<path class="st1" d="M340,248.1c-3.9-3-6.9-6.7-9.1-11.1C335.1,239.8,337.9,243.6,340,248.1z"/>
	<path class="st1" d="M415,307.9c0,0.4-0.1,0.8-0.1,1.2c-4.3,0.3-6.8,4.1-10.6,5.2c-0.3,0.1-0.6,0.1-1,0.2c0.1-0.3,0.2-0.6,0.4-0.9
		C407.4,311.5,410.3,308,415,307.9z"/>
	<path class="st1" d="M222.7,56.4c-2.4-3.2-4.8-6.5-7.2-9.7c0.4-0.3,0.8-0.6,1.2-0.9c2.2,3.3,4.5,6.7,6.7,10
		C223.2,55.9,222.9,56.2,222.7,56.4z"/>
	<path class="st1" d="M404.3,314.3c-5.4,3-6.3,3-10.4-1c3.9,1.4,6.9,2,9.8,0.3C403.9,313.9,404.1,314.1,404.3,314.3z"/>
	<path class="st1" d="M197.1,31.1c-3.7-2.2-5.9-5.9-8.6-9.1C192.6,23.7,195.2,27.1,197.1,31.1z"/>
	<path class="st1" d="M265.7,124.4c-2-3.4-4.1-6.7-6.1-10.1c0.3-0.2,0.5-0.4,0.8-0.7c2.5,3.1,4.5,6.4,6.1,10
		C266.1,123.9,265.9,124.1,265.7,124.4z"/>
	<path class="st1" d="M184.6,17c-4.2-0.9-6.3-4.3-8.9-7.1C179.6,11,182,14.2,184.6,17z"/>
	<path class="st1" d="M313.7,145.4c-2-2-4-4-6-6c0.2-0.3,0.5-0.5,0.7-0.8c2.3,1.7,4.4,3.6,6,6.1
		C314.2,144.9,313.9,145.1,313.7,145.4z"/>
	<path class="st1" d="M331,237c-2.6-1.3-4.3-3.3-5.1-6.1C328.5,232.3,330.3,234.2,331,237z"/>
	<path class="st1" d="M35.8,42.1c0.4-0.3,0.7-0.7,1.1-1c21.3,4.5,42.9,5.5,64.5,5c3.9-0.1,8-0.8,11.8,0.6c-0.4,1.2-1.6,0.5-2.2,1.1
		c-24.3,0.7-48.5,0.4-72.5-4.7C37.7,42.9,36.8,42.5,35.8,42.1z"/>
	<path class="st1" d="M126.1,138.9c9.1,2.6,14.3,9.2,18.1,17.4c2.7,5.9,4.3,12.2,6.1,18.4c3.4,11.9,8.9,22.9,15.5,33.3
		c-0.1,0.5-0.4,0.8-0.8,1c-7.9-11.2-13.2-23.6-16.9-36.7c-1.8-6.4-3.6-12.7-6.8-18.5c-3.6-6.7-8.8-11.5-16.1-13.9
		C124.9,139,125,138.4,126.1,138.9z"/>
	<path class="st1" d="M126.1,138.9c-0.4,0.3-0.7,0.7-1.1,1c-9.6-2.9-19-1.6-28.5,0.7c-4.2,1-8.4,1.8-12.7,2.2
		c-6.2,0.6-9-2.9-7.3-8.9c2.3-8.1,7.1-14.8,13.4-20.5c-2.3,3.3-4.6,6.5-6.8,9.9c-2.3,3.5-4.3,7.1-5.1,11.3c-0.9,4.9,0.5,6.4,5.4,6.5
		c7.2,0.2,14-2.6,21.1-3.5C111.8,136.5,119.1,135.9,126.1,138.9z"/>
	<path class="st1" d="M124.3,34.8c2.3,0.3,4.5,0.6,6.8,0.9c-8.7-4.3-18-6.1-27.3-7.7c-4.2-0.7-8.6-0.3-12.7-2
		c-0.2-0.1-0.5-0.3-0.7-0.4c0.2-0.1,0.5-0.3,0.7-0.4c16.3,1.4,32.5,3.5,47,11.8c0.2,0.9,1.1,1.8,0,2.8c-5.3-1.5-10.4-3.4-15.9-4
		C122.1,33.9,123.3,34.7,124.3,34.8z"/>
	<path class="st1" d="M47,34.3c0-0.4,0-0.8,0-1.2c17.8,3.8,35.8,5.8,53.9,6.9c1.5,0.1,2.9,0.5,4.4,0.8c0,0.8-0.7,0.7-1.2,1
		C84.9,40.4,65.6,39.5,47,34.3z"/>
	<path class="st1" d="M189.1,259.9c-1.8-7.6-5.4-14.1-11.2-19.5c-8.5-7.9-15.9-16.9-22.8-26.3c-0.9-1.2-2.6-2.2-2.2-4.2
		c1.7-0.1,2,1.5,2.7,2.5c7.5,10.1,15.6,19.7,24.7,28.4c5.2,4.9,8.4,10.9,9.8,18C190.6,259.9,190.1,260.1,189.1,259.9z"/>
	<path class="st1" d="M115.3,100.9c-3.1,3.2-6.3,6.3-9.1,9.8c-3.4,4.2-2.9,5.5,2.4,6.1c8.4,1.1,16.8,2,25.3,3c1.5,0.2,3,0.1,4.3,1
		c-0.1,0.7-0.7,0.7-1.1,1c-10.3-1.2-20.6-2.4-30.9-3.8c-4.5-0.6-5.3-2.3-2.8-5.9C106.5,107.7,109.7,103.1,115.3,100.9z"/>
	<path class="st1" d="M68.9,161.2c-2.4-10.9-1-21.4,3.5-31.5c2.1-4.6,4-9.5,7.7-13.2c0.6,1.5-0.4,2.6-1.1,3.6
		c-7.6,11.9-10.5,24.9-9,39C69.3,159.6,69.8,160.8,68.9,161.2z"/>
	<path class="st1" d="M138.1,39.8c0-0.9,0-1.8,0-2.8c7.8,3.7,14.3,8.8,19.1,16.1c1.1-0.1,1.5,0.5,1.2,1.4c-0.4,1.1-1.3,1.2-2.2,0.5
		c-1.8-3.1-3.6-6.3-7.4-9.2c2.8,5.8,3.1,10.9,2.2,16.2c-0.3,0.3-0.7,0.4-1.1,0C150.6,49.6,148,44.7,138.1,39.8z"/>
	<path class="st1" d="M137.1,121.9c0.4-0.3,0.7-0.7,1.1-1c4.3,0.3,8.5,1.5,12.5,3.1c9.7,3.9,13.6,9.8,13.5,20.3
		c-0.1,4.3,0.5,8.6-1,12.8c-1.8-1.3-0.8-3-0.7-4.6c1.7-19.4-2.3-25-21.4-29.8C139.6,122.4,138.3,122.2,137.1,121.9z"/>
	<path class="st1" d="M206.4,239c2.5-0.5,2.9,1.8,3.9,3.1c5.7,7.3,8.4,16,10.5,24.9c1.2,5.4,2.9,10.5,5.8,15.1
		c-5.1-2.3-5.4-7.3-6.5-11.7c-1.8-7.4-3.6-14.7-7.2-21.4C211,245.4,208.6,242.3,206.4,239z"/>
	<path class="st1" d="M148,203.1c-3.4-2-4.5-5.9-6.9-8.7c-8-9.5-13.1-20.5-16.2-32.4c2.3,0.9,2.7,3.3,3.2,5.1
		c2.7,11.5,10.1,20.3,16.5,29.6C146,198.7,148.1,200.3,148,203.1z"/>
	<path class="st1" d="M248.7,320.4c-13.7-5.7-31.5-17.3-35.4-23.6c10.7,9.7,23.9,15.6,36.1,22.9
		C249.1,319.9,248.9,320.1,248.7,320.4z"/>
	<path class="st1" d="M115.1,155.8c-7.1-1.4-13.3,0.8-19.2,4.6c-5.4,3.4-10.3,7.8-17.1,8.5c-0.8-0.9-2.8,0.6-2.9-1.5
		c6.7,0.6,11.7-3.1,16.8-6.5c6.1-4.1,12.3-7.9,20.2-6.9c1.1,0.1,2.4,0,3.2,1C115.9,155.3,115.6,155.6,115.1,155.8z"/>
	<path class="st1" d="M119,42c7.3-0.3,13.7,2.1,19.3,6.7c6.6,5.4,7.4,11.2,3.2,18.9c-0.2-0.2-0.5-0.5-0.5-0.7
		c2.8-11.1,0.2-16.4-10.5-21.1c-3.7-1.6-7.5-2.6-11.5-3C118.3,42.6,118.3,42.3,119,42z"/>
	<path class="st1" d="M198.9,272.3c-1.3-3.9-0.5-7.8-0.3-11.7c0.5-8.5,2.3-17.2-4.9-24.1c-0.4-0.9-0.1-1.1,0.7-0.7
		c5,3.5,6.3,8.7,6.1,14.4c-0.2,7-0.5,13.9-0.7,20.9C199.5,271.5,199.6,272.1,198.9,272.3z"/>
	<path class="st1" d="M165,209c0.3-0.3,0.5-0.7,0.8-1c6.8,9.7,14.6,18.3,24.9,24.4c1.4,0.8,2.5,2.1,3.7,3.2
		c-0.2,0.2-0.5,0.5-0.7,0.7C182.4,229.1,172,220.9,165,209z"/>
	<path class="st1" d="M111.1,47.8c0.7-0.4,1.5-0.7,2.2-1.1c1.2,0.1,2.3,0.1,3.5,0.2c5.4,0.7,10.8,2,12.9,7.6
		c2.1,5.6,0.2,10.6-3.7,15c-0.5-2.6,1.7-4.2,2.3-6.4c1.9-6.9-0.9-12.4-7.8-14C117.4,48.5,114.2,48.2,111.1,47.8z"/>
	<path class="st1" d="M149.8,62c0.4,0,0.7,0,1.1,0c-2.1,11.4-8.4,20.1-17.9,26.6c-0.1-0.9,0.3-1.6,1-2.1
		C142.1,80.1,146.9,71.7,149.8,62z"/>
	<path class="st1" d="M197.1,218c-6.2-2.4-10.8-7.2-16.3-10.6c-1.8-1.2-3-3.7-5.8-3.1c-1-0.3-1-1.2-1.3-2c-0.1-0.4,0-0.7,0.1-1.1
		c0.3-0.5,0.8-0.7,1.4-0.7c5.1,5.3,11.4,9,17.2,13.4C194.1,215.2,196.4,215.7,197.1,218z"/>
	<path class="st1" d="M198.9,272.3c0.3-0.4,0.6-0.8,1-1.2c1.4,9,5.9,16.6,11.1,23.8C204.3,288.7,199.9,281.4,198.9,272.3z"/>
	<path class="st1" d="M77,32.2c6.5,1.6,13.1,0.3,19.7,0.5c5.4,0.1,10.9,0.3,16.3,0.4c0.1,1.9-1.2,1.3-2.2,1.1
		c-9.1,0-18.1,0.1-27.2,0.1c-2.6,0-5.3,0.3-7.7-1.2C75.9,32.4,76.5,32.5,77,32.2z"/>
	<path class="st1" d="M204,320c-8.8-3.7-11.3-11.5-13.1-19.8c-0.1-0.6-0.1-1.3-0.1-2c-0.2-1-0.9-2.2,1-2.2
		C192.4,305.8,197,313.6,204,320z"/>
	<path class="st1" d="M163,162.9c-0.4,6.8,0.1,13.5,1.9,20.1c-0.4,0.8-0.8,0.9-1.2,0.1c-2.1-5.2-2.6-10.7-2.4-16.3
		C161.3,165.4,160.5,163.3,163,162.9z"/>
	<path class="st1" d="M163.7,183.1c0.4,0,0.8,0,1.2-0.1c2,5.2,3.3,10.8,7.3,15.1c2,0.7,2.6,2,1.8,3.9l-0.3,0.3
		c-3.7-1.3-4.2-5-5.8-7.8C165.9,190.9,164.3,187.2,163.7,183.1z"/>
	<path class="st1" d="M89,105c4-6.9,9.5-12.3,16.5-16.1C100,94.3,94.5,99.7,89,105z"/>
	<path class="st1" d="M49,19.8c7,0.6,13.1,3.2,18,8.2c-6.2-1.9-11.2-6.7-18-7.2c-0.2-0.2-0.3-0.5-0.3-0.7
		C48.9,19.9,48.9,19.8,49,19.8z"/>
	<path class="st1" d="M49,19.8c0,0.4,0,0.7,0,1.1C43.6,20.7,38.2,20,33,18.2c0-0.4,0-0.8,0-1.2C38.3,18,43.7,18.9,49,19.8z"/>
	<path class="st1" d="M190.9,288.9c0-6.6,0-13.1-0.1-19.7c-0.2-1-0.9-2.2,1-2.1c0.6,7.9,0.4,15.9,0,23.8
		C190,291,190.5,289.9,190.9,288.9z"/>
	<path class="st1" d="M76,167.3c1,0.5,2,1,2.9,1.5c-6.1,0.2-8-1.3-10-7.6c0.3-0.7,0.7-1.4,1-2.1C70.6,162.8,71.7,166.2,76,167.3z"/>
	<path class="st1" d="M110.8,34.2c0.7-0.4,1.4-0.7,2.2-1.1c3.8,0.2,7.7,0.5,11.3,1.7c-0.7,0.3-1.4,0.7-2.1,1
		C118.4,35.1,114.4,35.5,110.8,34.2z"/>
	<path class="st1" d="M119,42c0,0.3,0,0.6,0,0.8c-5-0.3-10-0.7-14.9-1c0.4-0.3,0.8-0.7,1.2-1C109.8,41.1,114.5,40.6,119,42z"/>
	<path class="st1" d="M178.4,210c4.4,2.4,7.6,5.9,9.6,10.6C184.3,217.5,181.1,214,178.4,210z"/>
	<path class="st1" d="M115.1,155.8c0.3-0.3,0.7-0.6,1-0.9c4.1,0.9,7.7,2.6,8.9,7.2C121.8,159.9,119.5,156.2,115.1,155.8z"/>
	<path class="st1" d="M82,114.6c0.9-4.3,3.5-7.3,7.1-9.6C87.4,108.7,84.7,111.6,82,114.6z"/>
	<path class="st1" d="M191.8,267.1c-0.3,0.7-0.7,1.4-1,2.1c-1.3-3-1-6.2-1.7-9.3c0.4-0.4,0.7-0.7,1.1-1.1
		C191.5,261.4,191.7,264.3,191.8,267.1z"/>
	<path class="st1" d="M77,32.2c-0.4,0.3-0.7,0.6-1.1,0.9c-3.4-0.9-6.7-2.1-8.9-5.1C70.7,28.4,73.4,31.4,77,32.2z"/>
	<path class="st1" d="M190.9,288.9c0.3,0.7,0.7,1.4,1,2c0,1.7,0,3.5,0,5.2c-0.3,0.7-0.7,1.4-1,2.2
		C189.5,295.1,189.6,292,190.9,288.9z"/>
	<path class="st1" d="M103.7,99.6c2.4-2.1,4.7-4.4,8.2-4.9c-2.5,1.9-5.1,3.7-7.6,5.6C103.5,100.7,103.3,100.4,103.7,99.6z"/>
	<path class="st1" d="M199.4,232c3.9,0.5,5.4,3.4,6.6,6.6C203.7,236.5,201.2,234.6,199.4,232z"/>
	<path class="st1" d="M104.3,100.4c-2.1,2-4,4.2-7.4,4.8c2.3-1.8,4.5-3.7,6.8-5.5C103.9,99.9,104.1,100.1,104.3,100.4z"/>
	<path class="st1" d="M153.1,210.1c-2.7-1.6-4.3-4.1-5.1-7.1C150.7,204.6,152.2,207.1,153.1,210.1z"/>
	<path class="st1" d="M129.2,91c-1.8,2.7-4.6,4-7.2,5.6C123.2,93.2,126,91.9,129.2,91z"/>
	<path class="st1" d="M106,88.5c1-3,3.2-4.7,6.1-5.6C110.7,85.6,108.4,87.1,106,88.5z"/>
	<path class="st1" d="M111.9,83c1.6-2.4,3.3-4.6,6.4-5.1C116.6,80.1,114.9,82.3,111.9,83z"/>
	<path class="st1" d="M435,32.8c0.3-0.3,0.7-0.6,1-0.9c14.7,10.3,23.9,24.8,29.9,41.3c4,11,9,21.3,14.9,31.4
		c4.6,7.8,9.2,15.8,10.3,25.1c0.5,1.1-0.1,1.3-1,1.2c-1.8-9.3-5.9-17.6-10.7-25.6c-5.8-9.7-10.8-19.7-14.6-30.5
		C459,58.1,449.6,43.6,435,32.8z"/>
	<path class="st1" d="M452.1,21.8c0.3-0.3,0.7-0.6,1-0.9c4.9,1.2,8.5,4.3,9.8,9c4.8,17.5,15.5,31.8,24.2,47.2
		c7.1,12.6,13.9,25.3,17,39.6c0.5,1.1-0.1,1.3-1,1.1c-4-16.5-11.9-31.2-20.5-45.6c-2.7-4.5-5.6-9-8.3-13.5c-0.8,0-0.9-0.3-0.5-0.9
		c-4.6-8.2-9.1-16.4-11.5-25.6C460.8,27,457.4,23.5,452.1,21.8z"/>
	<path class="st1" d="M574,202c0.5,0,1.1-0.1,1.3,0.2c13.9,13.5,31.9,19.9,49,27.6c8.3,3.7,16.4,7.8,25,10.9
		c5.2,1.9,5.8,4.4,2.6,9.4c1.1-5.2-1.3-7.3-6.1-9.3c-18.2-7.5-36.5-15.1-53.8-24.6C585.2,212.5,578.4,208.7,574,202z"/>
	<path class="st1" d="M618.9,292c-1.3-7.2-2.4-14.4-4-21.5c-3.6-16.4-11.4-29.6-27.6-36.6c-2-0.8-4.3-1.7-5.4-3.9
		c10.8,4.8,21.3,9.8,27.2,21c6.8,12.9,9.6,26.7,10.7,41.1C619.5,292.8,619.2,292.8,618.9,292z"/>
	<path class="st1" d="M634.1,264c-0.5-7.5-4.1-13.8-8.5-19.6c-0.3-0.9,0-1.1,0.8-0.7c7.5,7.2,9.4,16.7,10.3,26.3
		c0.9,10.1,0.5,20.3-0.2,30.4c-0.1,1,0.2,2.4-1.6,3.3C635.3,290.2,637.4,277,634.1,264C634,263.9,634.1,264,634.1,264z"/>
	<path class="st1" d="M493,65c7.7,8.4,13.5,18.1,19.7,27.5c4.6,6.9,8.9,13.9,9.6,22.5c-0.4,0.3-0.8,0.4-1.1,0
		c-2-10.9-8.3-19.7-14.3-28.6c-3.8-5.8-8-11.4-11.9-17.1C494.1,67.9,492.5,66.9,493,65z"/>
	<path class="st1" d="M628.8,354.1c-0.7,1-1.4,2.1-2.2,3.1c-0.6-1.2-1.5-2.3-1.6-3.5c-1-8.8-5.1-16.2-9.9-23.3c-0.2-0.3,0-0.9,0-1.4
		c3.4,1.8,3.8,6,6.9,8.7c0-1.7,0-3.1,0-4.4c-0.3-1-0.9-2.2,1-2.2C622.7,339.3,626,346.6,628.8,354.1z"/>
	<path class="st1" d="M625.6,244.4c-1.9-2.2-4.4-3.3-7.1-4.4c-11.8-4.5-23.1-10.1-33.9-16.9c-1.3-0.8-3-1.2-3.9-4
		c3.8,2.2,6.8,4,9.8,5.8c9.3,5.5,19.1,10.1,29.2,14c2.6,1,5.5,1.7,6.7,4.7C626.1,243.9,625.9,244.1,625.6,244.4z"/>
	<path class="st1" d="M652,249.9c0,3.5-1.7,6.4-3,9.4c-4.8,10.8-2.2,21.6-0.7,32.4c0.4,2.6,0.5,5.3,0.8,7.9c0.2,1,0.9,2.2-1,2.3
		c-1-6.9-1.8-13.9-2.9-20.8C643.4,269.9,646.6,259.6,652,249.9z"/>
	<path class="st1" d="M648.2,302c0.3-0.8,0.7-1.6,1-2.3c2,9.9,1.9,19.8,0.9,29.8c-0.4,4.8,0.5,9,5.8,10.7c0.1,0.9,0,1.6-1.2,1
		c-5.1-1.4-6.7-5.3-6.4-9.9C649.3,321.4,649.1,311.7,648.2,302z"/>
	<path class="st1" d="M473.8,26.2c0.3-0.4,0.6-0.8,0.9-1.2c3.4,12.8,9.2,24.5,16.3,35.6c0.8,1.3,2.5,2.4,2,4.3
		c-7-7.4-10.9-16.6-15-25.7C476.1,35.2,474.4,30.9,473.8,26.2z"/>
	<path class="st1" d="M545.4,191.6c9.9,8,19.3,16.5,29.5,24.2c-10.9-6.7-21-14.6-30.2-23.5C544.3,191.5,544.5,191.3,545.4,191.6z"/>
	<path class="st1" d="M524.2,128.7c1.5,6.6,0.9,13.4,1.9,20c0.4,2.7,0.6,5.5,0.9,8.3c-0.4,0.4-0.3,1.1-1.1,1.2
		c-2.6-8.2-1.8-16.8-2.7-25.3C524.1,131.7,522.8,129.9,524.2,128.7z"/>
	<path class="st1" d="M654,358.1c0,0.4,0,0.8,0,1.2c-11.8-2.9-18.5-11.7-19.1-25.3c0.3-0.3,0.7-0.4,1.1,0
		C637.5,345.4,641.8,354.7,654,358.1z"/>
	<path class="st1" d="M520.3,172.7c10.2,3.8,17.6,11.5,25,19c-0.2,0.2-0.5,0.5-0.7,0.7c-8-6.8-15.3-14.4-25-19
		c-0.1-0.3-0.2-0.6-0.3-0.9C519.7,172.5,520,172.6,520.3,172.7z"/>
	<path class="st1" d="M654.8,341.1c0.4-0.3,0.8-0.7,1.2-1c5.6,1.4,11.1-0.1,16.6-0.7c3.2-0.3,6.5-1.1,9.6,0.5
		c-0.3,0.3-0.7,0.6-1,0.9c-6.9-0.6-13.7,1.3-20.6,1.3C658.5,342.1,656.5,342.5,654.8,341.1z"/>
	<path class="st1" d="M635.9,334c-0.4,0-0.7,0-1.1,0c-0.3-1.7-0.6-3.4-1-5.1c0-2,0-4,0-6c0.3-4.2,0.6-8.4,0.8-12.6
		c0.4,0,0.9,0,1.3,0.1C635.8,318.4,634.9,326.2,635.9,334z"/>
	<path class="st1" d="M525.8,158.2c0.4-0.4,0.7-0.8,1.1-1.2c0.8,4.7,4,7.7,7.4,10.7c3,2.7,6.7,4.6,8.8,8.3
		C536.1,171.3,528.4,167.2,525.8,158.2z"/>
	<path class="st1" d="M572.1,224.1c-8.4-3.8-14.7-10.2-21.5-16.1c2.6-0.5,3.8,1.7,5.3,3C561.2,215.4,567.2,219,572.1,224.1z"/>
	<path class="st1" d="M547.6,205c-3,0.2-4.6-2.3-6.5-3.8c-4.7-3.7-10.2-6.5-14.1-11.3C534.6,193.9,541.2,199.4,547.6,205z"/>
	<path class="st1" d="M622.9,331c-0.3,0.7-0.7,1.5-1,2.2c-1.3-6.7-1.2-13.6-1.7-20.4c0.7-0.9-0.3-2.4,0.9-3.1
		C622.5,316.8,622.2,324,622.9,331z"/>
	<path class="st1" d="M515.1,181.1c-6.5-3.8-12.2-8.5-16.1-15.1C504.5,170.8,510.2,175.4,515.1,181.1z"/>
	<path class="st1" d="M505.2,149.1c0.3-1.4,0.5-2.7,0.8-4.1c0.3-0.7,0.6-0.7,0.9,0c0.6,3.7-0.6,7.2-0.6,10.9c0.1,3.2,1.5,6,3,8.8
		c0.3,0.9,0.1,1.1-0.7,0.7C503.9,160.6,505.1,154.7,505.2,149.1z"/>
	<path class="st1" d="M490.2,130.9c0.3-0.4,0.6-0.8,1-1.2c1.6,4.2,1.1,8.7,1.2,13c0.1,2.8,0.3,5.5,0.5,8.3c-0.3,0.4-0.3,1.1-1,1.2
		c-1.7-3.9-0.6-8.1-0.9-12.1C490.7,137.1,490.5,134,490.2,130.9z"/>
	<path class="st1" d="M524.2,128.7c-0.3,1.4-0.7,2.8-1,4.2c-0.7-6-1.3-12-2-18c0.4,0,0.8,0,1.1,0C523.7,119.4,524.2,124,524.2,128.7
		z"/>
	<path class="st1" d="M503.1,118c0.3-0.4,0.7-0.8,1-1.1c1.8,4.9,2.5,10.1,2.7,15.3c-0.3,0.4-0.3,1.1-1,1.1c-0.3-0.1-0.5-0.1-0.7-0.2
		C505.2,127.9,503.9,122.9,503.1,118z"/>
	<path class="st1" d="M491.8,152.3c0.3-0.4,0.7-0.8,1-1.2c0.5,5.6,4.1,10,6.2,15C494.3,162.7,492.8,157.6,491.8,152.3z"/>
	<path class="st1" d="M527.1,190.1c-4.7-2.1-8.9-5-12.1-9.1C519.6,183.2,523.8,186,527.1,190.1z"/>
	<path class="st1" d="M548.9,181c4.5,2.1,8.2,5.1,11.1,9.1C555.5,188,551.9,184.8,548.9,181z"/>
	<path class="st1" d="M509.3,164.6c3.2,3.3,7.3,5.4,11,8.1c-0.2,0.2-0.4,0.4-0.6,0.7c-4.3-1.8-8.3-4.1-11.1-8
		C508.8,165.1,509.1,164.9,509.3,164.6z"/>
	<path class="st1" d="M618.9,292c0.3,0,0.6,0,1,0c0.3,3.7,0.6,7.3,1,11c-0.3,0.8-0.6,0.8-0.9,0C618.6,299.4,619,295.7,618.9,292z"/>
	<path class="st1" d="M582.1,230c-4-1-7.4-2.9-10.1-6.1C575.9,225.1,579.3,227.1,582.1,230z"/>
	<path class="st1" d="M505.8,133.2c0.3-0.4,0.7-0.7,1-1.1c0,4.3,0,8.6,0.1,12.9c-0.3,0-0.6,0-0.9,0
		C506,141.1,505.9,137.1,505.8,133.2z"/>
	<path class="st1" d="M559.9,190c3.1,1.1,5.6,3.1,7.1,6.1C564,194.8,561.5,192.9,559.9,190z"/>
	<path class="st1" d="M566.9,195.9c3.3,0.9,5.4,3.3,7.1,6.1C570.8,201,568.8,198.6,566.9,195.9z"/>
	<path class="st1" d="M619.9,303c0.3,0,0.6,0,0.9,0c0.1,2.3,0.2,4.5,0.3,6.8c-0.3,1-0.6,2.1-0.9,3.1
		C620.1,309.6,620,306.3,619.9,303z"/>
	<path class="st1" d="M542.9,175.9c2.8,0.8,4.8,2.5,6.1,5.1C546.3,180.2,544.3,178.5,542.9,175.9z"/>
	<path class="st1" d="M156.1,55c1.1-0.2,1.7-0.7,1.1-1.9c-1.8-9.4-7.6-15.8-15.7-20.1c-6.4-3.4-13.2-6.4-20.2-8.3
		c-0.2-0.9,0-1.4,1.1-0.9c8.1,2.1,15.7,5.3,22.8,9.7c7.3,4.5,11.6,11.2,14,19.3c4,13.4,9.1,26.4,16.9,38.1
		c5.1,7.7,10.8,15.1,18.5,20.1c11.2,7.3,14.8,17.3,13.4,29.9c-0.9,0.1-1.5,0-1-1.1c0.5-11.8-3.5-20.7-13.6-28
		c-16.6-12-25.7-29.6-32.3-48.5c-0.7-1.9-1.3-3.7-2-5.6c-0.1-0.2-0.3-0.4-1-1.5c1.7,8.1-0.5,14.3-4.4,20.2
		C156.7,69.5,158.6,62.5,156.1,55z"/>
	<path class="st1" d="M198.9,214c18,9.4,36.8,17.2,51.2,32.4c10.8,11.4,21.6,23,35.7,30.8c0.2,0.1,0.2,0.6,0.3,0.9
		c-7.9-2.4-13.6-8-19.5-13.2c-10.6-9.3-19.5-20.4-30.9-29c-7.5-5.7-16-9.4-24.2-13.7C207.1,219.8,202.1,218.3,198.9,214z"/>
	<path class="st1" d="M329.8,321.9c-0.3-0.4-0.7-0.8-1-1.2c1-13.5-5.4-22.8-16.7-29.3c-7.1-4-14.6-7.1-21.9-10.6
		c-1.5-0.7-3.6-0.7-4.2-2.9c12.6,4.7,25.1,9.6,35.3,18.6C328.9,303.3,331.1,312.1,329.8,321.9z"/>
	<path class="st1" d="M186.1,136c-2.9-13.3-12.5-20.2-24.2-25c-5.5-2.2-11.3-4-16.8-6.2c-1.9-0.8-4.1-1.6-5.4-3.4
		c-0.4-0.8-0.2-1,0.7-0.7c6.6,3.8,14,5.8,21,8.5c9.4,3.6,17.9,8.5,23.1,17.7c1.4,2.4,2.6,5,2.8,7.9
		C187.6,135.8,187.1,136.1,186.1,136z"/>
	<path class="st1" d="M298.1,303c-13.7-6.1-27.7-11.6-39.7-20.8c-0.3-0.2-0.3-0.8-0.4-1.2c12.4,8.4,26.4,13.7,39.4,20.9
		C297.7,302.1,297.8,302.7,298.1,303z"/>
	<path class="st1" d="M241,264c-3.5-1.8-5.1-5.3-7.4-8.2c-4.6-5.8-8.8-11.9-13.2-17.9c0.3,0,0.8-0.2,0.9-0.1
		C228.6,246.1,235.2,254.8,241,264z"/>
	<path class="st1" d="M206.8,139.8c0.3,0.4,0.7,0.8,1,1.1c-0.7,8.6-3.5,16.7-6.9,24.5c-0.6,1.4-1.2,3.1-3,3.6
		C202,159.6,205.2,149.9,206.8,139.8z"/>
	<path class="st1" d="M189.1,189.1c-2,10.4,3.1,18,9.9,24.9c-7.5-3.3-12.8-12.9-11.7-21.5c0.2-1.5,0.5-2.9,0.8-4.4
		C189,188,189.7,188,189.1,189.1z"/>
	<path class="st1" d="M172.2,187.1c1.4-9.4,4.6-18.2,9.4-26.4c0.3,0,0.6-0.4,0.9-0.1c0.1,0.1-0.1,0.5-0.2,0.8
		c-4,8.6-7.1,17.5-9.2,26.8C172.5,188.1,172.4,187.4,172.2,187.1z"/>
	<path class="st1" d="M186.1,136c0.4-0.4,0.8-0.8,1.1-1.3c2.5,9.6-0.4,18.3-4.9,26.7c-0.2-0.2-0.5-0.5-0.7-0.7
		C184.9,152.8,187.3,144.7,186.1,136z"/>
	<path class="st1" d="M258.1,281.1c-7.2-4.2-12.8-10-17.1-17.1C246.7,269.6,252.4,275.4,258.1,281.1z"/>
	<path class="st1" d="M189.1,189.1c-0.3-0.3-0.6-0.7-0.9-1c2-7,4.4-13.9,9.9-19.1C195,175.7,191.2,182,189.1,189.1z"/>
	<path class="st1" d="M313.2,316.7c-0.4,0.4-0.7,0.8-1.1,1.2c-1-5.1-4.9-7.8-8.7-10.7c-1.9-1.4-4.4-1.9-5.5-4.3
		C304.7,305.6,310.9,309.1,313.2,316.7z"/>
	<path class="st1" d="M172.2,187.1c0.3,0.4,0.6,0.7,0.9,1.1c-0.3,4.3,0.3,8.5,2.1,12.4c-0.4,0.5-0.8,1-1.2,1.4
		c-0.2-1.5-0.9-2.8-1.8-3.9C171.9,194.4,171.6,190.7,172.2,187.1z"/>
	<path class="st1" d="M208.1,226c-4.3-1.8-8-4.6-11.1-8.1C201.4,219.6,205.1,222.3,208.1,226z"/>
	<path class="st1" d="M139.6,101.4c-6.6-4.6-7-6.3-2.3-10.2c-4.3,5.1,1,6.7,3,9.5C140.1,100.9,139.9,101.2,139.6,101.4z"/>
	<path class="st1" d="M215.6,232c-3.5-0.8-5.7-3.3-7.6-6.1C211.4,226.9,213.5,229.4,215.6,232z"/>
	<path class="st1" d="M345.4,89c4.5,0.6,6.4,4.4,8.6,7.5c8.2,11.7,13.6,24.7,17,38.5c0.7,2.7,1.6,5.4,2.5,8.1
		c3.9,11.3,11.6,18.3,23.3,21c4.4,1,8.6,2.4,12.9,3.8c4,1.4,7.4,3.7,9.9,7.2c-0.3,0.1-0.8,0.3-0.9,0.2c-7.6-7.2-17.7-8.5-27.2-11.4
		c-8.5-2.6-14.1-8.4-17.8-16.4c-2.6-5.6-4.1-11.6-5.8-17.5C363.5,114.6,357,100.4,345.4,89z"/>
	<path class="st1" d="M372.1,182.9c-7.7-25.2-20.3-47.9-36-69c0.1-0.5,0.3-0.8,0.8-0.9c16.2,20.7,28.7,43.5,36.1,68.8
		C373.6,182.9,373.1,183.1,372.1,182.9z"/>
	<path class="st1" d="M491,249c0.8-0.3,1.2,0.2,1.6,0.7c9.4,11.5,18.2,23.4,26,36.1c0.4,0.7,0.9,1.4,0.5,2.3c-1.8-0.2-2-2-2.8-3.1
		c-7.1-11.2-15-21.9-23.2-32.3C492.2,251.5,490.6,250.8,491,249z"/>
	<path class="st1" d="M300.1,72.1c-2.1,0.1-2.6-1.8-3.5-3C290,61,282.3,53.9,277,44.9c4.5,2.9,7.2,7.5,10.5,11.5
		C291.8,61.5,296.9,66,300.1,72.1z"/>
	<path class="st1" d="M291,45.9c3.8,2.4,5.7,6.5,8.9,9.5c5.1,4.8,10.1,9.7,15.2,14.6c-8.4-4.2-14.1-11.5-20.2-18.2
		C293.2,50.2,291,48.7,291,45.9z"/>
	<path class="st1" d="M315,70c6.6,3.9,13.2,7.8,19.8,11.8c2.9,1.8,6.3,2.8,8.8,5.3c-4.7-0.2-8.2-3.2-11.9-5.5
		C325.9,78.1,319.4,75.4,315,70z"/>
	<path class="st1" d="M275,22.9c6.6,6.8,11.8,14.7,16.1,23.1c-3.6-1.9-4.8-5.7-6.7-8.8C281.2,32.5,276.9,28.5,275,22.9z"/>
	<path class="st1" d="M453,206.4c6.9,6.4,13.9,12.7,19.1,20.6C465,220.8,458,214.5,453,206.4z"/>
	<path class="st1" d="M430.9,185.9c7.6,5.6,14.8,11.7,20.1,19.6C444,199.3,436.8,193.3,430.9,185.9z"/>
	<path class="st1" d="M414.1,188.8c-9.2-3.8-17.7-0.7-26.1,2.7c5.2-5.8,19.1-7.7,27.2-3.6C414.9,188.4,414.6,188.7,414.1,188.8z"/>
	<path class="st1" d="M440,217C434,211.1,429,204.4,425,197C431,202.9,435.9,209.7,440,217z"/>
	<path class="st1" d="M372.1,182.9c0.3-0.4,0.7-0.7,1-1.1c1,3,2.3,5.9,2.9,9c0.8,4,2.3,5.3,5.9,2.8c0.6-0.4,1.5-0.4,2.3-0.6
		c-0.6,1.6-2.3,1.9-3.5,2.7c-3.2,2.2-5.2,1.3-6-2.6C374.1,189.6,373,186.3,372.1,182.9z"/>
	<path class="st1" d="M337,113c-0.3,0.3-0.5,0.6-0.8,0.9c-4-5.4-9.1-10-12.2-16C329.5,101.9,332.9,107.8,337,113z"/>
	<path class="st1" d="M314.6,87c-6.2-3.8-10.8-9-14.6-15.1C305.5,76.3,310.1,81.6,314.6,87z"/>
	<path class="st1" d="M251,15.6c-4.2-4.6-9.6-8.1-12.1-14.1C243.3,5.9,248.7,9.4,251,15.6z"/>
	<path class="st1" d="M478,262.6c-4.4-4.2-9.1-8.2-12.1-13.6C470.8,252.8,475.4,256.7,478,262.6z"/>
	<path class="st1" d="M451.6,231c-5.5-3.3-8.6-8.7-11.6-14.1C444.8,220.8,447.9,226.2,451.6,231z"/>
	<path class="st1" d="M479.9,235.9c4.8,3.5,8.5,7.8,11.1,13.1C486.6,245.3,482.8,241,479.9,235.9z"/>
	<path class="st1" d="M466,249.1c-4.6-3.8-8.8-7.9-11.1-13.5C459.2,239.6,463.3,243.8,466,249.1z"/>
	<path class="st1" d="M277,45.1c-4.6-3.6-8.3-8-11.1-13.1C270.6,35.5,274.3,39.8,277,45.1z"/>
	<path class="st1" d="M414.1,188.8c0.3-0.3,0.7-0.6,1-0.9c4.2,2,8.1,4.5,9.9,9.1C421,194.8,418.5,190.5,414.1,188.8z"/>
	<path class="st1" d="M420,175.4c4.1,3.2,8.3,6.1,11.1,10.6C426.6,183.3,422.5,180.2,420,175.4z"/>
	<path class="st1" d="M324.1,98.1c-3.8-2.9-7.4-5.9-9.1-10.6C318.4,90.6,322.1,93.6,324.1,98.1z"/>
	<path class="st1" d="M471.9,226.9c3.5,2.3,6.4,5.2,8.1,9.1C476.6,233.7,473.8,230.8,471.9,226.9z"/>
	<path class="st1" d="M267.9,13.9c3.4,2.2,5.6,5.4,7.1,9.1C271.7,20.8,269.4,17.7,267.9,13.9z"/>
	<path class="st1" d="M266,32.1c-3.2-2-5.6-4.7-7.1-8.1C262.2,25.9,264.6,28.5,266,32.1z"/>
	<path class="st1" d="M259.1,24.1c-3.3-1.9-5.4-5-7.6-8.1C255.3,17.4,257.4,20.5,259.1,24.1z"/>
	<path class="st1" d="M262.9,7.9c2.7,1.2,4.3,3.3,5.1,6.1C265.4,12.8,263.9,10.6,262.9,7.9z"/>
	<path class="st1" d="M258,1.5c2.2,1.8,4.6,3.4,5.1,6.5C260.6,6.5,258.4,4.7,258,1.5z"/>
	<path class="st1" d="M363.1,203c-5.7-6.6-8.7-14.7-9.8-23c-2.3-18.2-8.2-35-18.4-50.3c-0.4-0.6-0.3-1.2,0.1-1.7
		c10.8,14,16.6,30,19,47.4c1.3,9.6,4.3,18.7,10,26.7C364.5,203,363.9,203.2,363.1,203z"/>
	<path class="st1" d="M363.1,203c0.3-0.3,0.6-0.7,0.9-1c9.5,10.7,21.7,13.1,35.3,11.5c5.9-0.7,11.8-2.6,17.7-0.5c0,0.3,0,0.5,0,0.8
		c-9.8-0.9-19.5,2-29.3,1.2C377.9,214.3,369.4,210.9,363.1,203z"/>
	<path class="st1" d="M277.6,69c-1.8,0.5-2.3-1-2.9-2c-6.9-10.9-13.8-21.7-20.6-32.6c-0.2-0.3-0.1-0.9-0.1-1.4
		c1.5,0,1.7,1.4,2.3,2.2C263.4,46.4,270.5,57.7,277.6,69z"/>
	<path class="st1" d="M314.6,105c-5.7-2.7-9.8-7.3-13.6-12.1C306.5,95.9,310.4,100.6,314.6,105z"/>
	<path class="st1" d="M293.1,86.1c-5.2-3-9.8-6.7-12.1-12.5C285.1,77.6,289.5,81.4,293.1,86.1z"/>
	<path class="st1" d="M329.1,121.1c-3.5-2.5-6.8-5.2-8.1-9.6C324.1,114.2,327.4,117,329.1,121.1z"/>
	<path class="st1" d="M245.6,21c-4-1.5-6.3-4.8-8.6-8.1C241,14.4,243.2,17.8,245.6,21z"/>
	<path class="st1" d="M301.1,93c-3.6-1.4-6-4.1-8.1-7.1C296.6,87.3,299.1,89.8,301.1,93z"/>
	<path class="st1" d="M335,127.9c0,0.6-0.1,1.1-0.1,1.7c-2-2.9-5-5.1-5.9-8.7C332,122.4,333.2,125.4,335,127.9z"/>
	<path class="st1" d="M254.1,33.1c-2.8-1.8-4.5-4.2-5.1-7.5C251.4,27.5,253.3,29.9,254.1,33.1z"/>
	<path class="st1" d="M494.9,229.6c7.1,7.1,12.3,15.6,18.2,23.6c14.5,19.7,27.7,40.3,41.3,60.6c0.5,0.7,1,1.3,0.7,2.2
		c-1.8,0.1-2-1.6-2.6-2.6c-18.3-27.7-36.7-55.3-57-81.6C494.9,231.2,494.6,230.4,494.9,229.6z"/>
	<path class="st1" d="M321,55.2c6.7,1.4,13.6,0.2,20.3,1.6c9.2,1.9,16,6.9,20.7,15c4,6.9,7.2,14.3,9.9,21.7
		c3.9,10.7,9.3,20.7,15.1,30.5c-4.4-2.6-6-7.2-8.3-11.3c-5.2-9.3-8.3-19.5-12.7-29.2c-1.4-3.2-3-6.3-4.5-9.4
		c-5.8-11.6-15.7-16.5-28.3-17.1c-4.1-0.2-8.3,0.6-12.3-1.1C320.2,55.8,320.2,55.5,321,55.2z"/>
	<path class="st1" d="M438,169.5c4.7,4.6,7.2,10.6,9.2,16.7c1.2,3.7,3.3,5.6,6.8,7.1c5.8,2.4,11.9,4.6,16,9.8
		c-6.9-3.4-13.4-7.6-20.7-10.4c-1.1-0.4-2.1-1.8-2.4-3c-2.2-6.6-5.2-12.9-9.1-18.7C437.7,170.6,437.9,170,438,169.5z"/>
	<path class="st1" d="M403.9,139c8.7,4.6,15.7,11.3,23,17.7c2.8,2.5,5.9,4.9,7.7,8.4c-0.5,0-1.2,0.2-1.4-0.1
		c-8.5-9.5-18.8-16.9-28.7-24.8C404.2,139.9,404.1,139.4,403.9,139z"/>
	<path class="st1" d="M321,55.2c0,0.3,0,0.6,0,0.9c-2.4,0.2-4.6-0.4-6.6-1.7c-8.7-5.7-16.1-12.8-22.9-20.7c-0.6-0.7-0.9-1.4-0.5-2.3
		c7.2,7.1,13.8,14.8,22.3,20.5C315.7,53.5,318.1,54.9,321,55.2z"/>
	<path class="st1" d="M469.9,203c3.2,0.5,5,3,7,5.1c5.1,5.4,10.4,10.7,14.6,17c-0.7,0.2-1.3,0.2-1.8-0.4
		C483.6,217.1,476.8,210,469.9,203z"/>
	<path class="st1" d="M561.8,331l-0.5,0l-0.5,0c0.5-4-1.1-7.3-3.5-10.4c-1-1.3-2.8-2.5-2.4-4.6C559.4,320,563.2,324.3,561.8,331z"/>
	<path class="st1" d="M393.9,131c4.1,1.8,7.4,4.6,10.1,8.1C399.9,137.3,396.5,134.7,393.9,131z"/>
	<path class="st1" d="M273.9,8.9c3.4,2.7,5.7,6.1,7.1,10.1C277.7,16.4,275.3,13,273.9,8.9z"/>
	<path class="st1" d="M280.9,18.9c3.3,1.8,4.6,5.3,6.6,8.1C283.8,25.7,282.3,22.3,280.9,18.9z"/>
	<path class="st1" d="M387,124c2.9,1.8,5.4,4.1,7.1,7.1C390.8,129.6,388.2,127.5,387,124z"/>
	<path class="st1" d="M435,144c5.3,4.2,8,10.2,11.3,15.8c1.8,3,3.6,6.1,4.6,9.3c2.6,8.7,6.8,16,14.7,20.9c-5.5-1.3-9.9-4.7-11.8-9.6
		c-4.7-12.7-10.7-24.7-18.9-35.5C434.7,144.7,434.9,144.3,435,144z"/>
	<path class="st1" d="M519,240.9c1.9,0.1,2.1,1.9,2.9,3c6.6,10.1,13.1,20.3,20.4,29.9c0.5,0.6,1.2,1.2,0.8,2.2
		c-2.8-0.9-3.7-3.6-5.1-5.6c-6.2-9-12.3-18.1-18.3-27.2C519.1,242.5,518.6,241.9,519,240.9z"/>
	<path class="st1" d="M413.9,120c7.3,5.3,12.3,12.6,18.1,19.3c1.2,1.4,3,2.6,3,4.8C427.6,136.4,420.3,128.6,413.9,120z"/>
	<path class="st1" d="M387.8,83.3c0.3-0.4,0.6-0.8,0.9-1.2c1.5,6.7,4.6,12.6,8.9,17.9c1,1.2,2.8,2,2.4,4
		C393.4,98.6,389.4,91.7,387.8,83.3z"/>
	<path class="st1" d="M566.9,305.9c5.9,4.8,11.2,10.3,16.1,16.1C576.5,317.9,571.2,312.5,566.9,305.9z"/>
	<path class="st1" d="M505.9,222.9c5.8,5,9.9,11.2,13.1,18.1C513.8,235.6,509.7,229.4,505.9,222.9z"/>
	<path class="st1" d="M547.9,281.9c5.2,5.1,9.5,10.9,13.1,17.1C555.4,294.3,551.2,288.5,547.9,281.9z"/>
	<path class="st1" d="M404.9,109.9c3.9,2.6,7,5.9,9.1,10.1C410.2,117.5,407,114.2,404.9,109.9z"/>
	<path class="st1" d="M482.9,200.9c4.3,1.6,7.6,4.3,10.1,8.1C489.2,207,485.7,204.5,482.9,200.9z"/>
	<path class="st1" d="M472.4,195c4.4,0.5,7.8,2.8,10.6,6.1C479,200,475.8,197.3,472.4,195z"/>
	<path class="st1" d="M493,209c3.3,1.4,5.7,3.8,7.1,7.1C496.9,214.5,494.6,212,493,209z"/>
	<path class="st1" d="M560.9,298.9c2.8,1.7,5,4,6.1,7.1C564.2,304.4,561.9,302.2,560.9,298.9z"/>
	<path class="st1" d="M499.9,215.9c3,1.6,5.2,3.8,6.1,7.1C503.3,221.3,501.2,219,499.9,215.9z"/>
	<path class="st1" d="M590,327.1c0,0.5,0,1,0,1.5c-2.5-2-5.7-3.4-7-6.6C586,322.6,587.6,325.5,590,327.1z"/>
	<path class="st1" d="M399.9,103.9c2.5,1.4,4.4,3.3,5.1,6.1C402.5,108.7,400.7,106.8,399.9,103.9z"/>
	<path class="st1" d="M542.9,275.9c2.6,1.3,4.3,3.3,5.1,6.1C545.6,280.7,543.7,278.8,542.9,275.9z"/>
	<path class="st1" d="M131,201c1-0.4,1.5,0.4,2.1,0.9c25.9,23,41.9,51.8,50.3,85.1c-0.4,0.4-0.8,0.4-1.3,0
		c-8.4-30.9-22.7-58.5-46.3-80.7C134.1,204.6,131.5,203.7,131,201z"/>
	<path class="st1" d="M93,198.9c-7.5-1.6-15.3-1.1-22.7-2.5c-14.1-2.7-20.8-11-21.2-25.3c-0.3-9.2,1.5-18.2,4.1-27
		c0.4-0.3,0.7-0.3,1,0c-1.6,8.8-3.8,17.4-3.4,26.5c0.8,16.1,9,24.5,25.2,25.3c5.8,0.3,11.6,0.1,17.1,2.1
		C93.8,198.2,93.8,198.5,93,198.9z"/>
	<path class="st1" d="M11.8,59.2c0.4-0.3,0.7-0.6,1.1-1c16.6,4.1,33.4,6.8,50.4,7.9c3.6,0.2,3.6,0.4,2.7,2.9
		c-6.4-2.5-13.3-1.8-19.9-2.9C34.5,64.3,22.9,63.2,11.8,59.2z"/>
	<path class="st1" d="M54.1,144c-0.3,0-0.7,0-1,0c2.8-12.3,7.3-24,11.3-35.9c1-3,1.8-6,1.8-9.2c0.3-0.4,0.2-1.1,1-1.1
		c1.6,2.2,0.6,4.5-0.1,6.7C62.8,117.7,58.5,130.9,54.1,144z"/>
	<path class="st1" d="M76,106.9c0,0.3,0.2,0.7,0.1,1c-7.1,13.3-12.1,27.3-14,42.3c-1-0.4-0.4-1.5-0.9-2.1
		c1.1-14.6,6.7-27.7,13.7-40.4C75.1,107.3,75.6,107.2,76,106.9z"/>
	<path class="st1" d="M182.1,287c0.4,0,0.9,0,1.3,0c3.7,11.4,4.9,23.4,7.5,35.1c-0.3,0.4-0.7,0.8-1,1.2
		C186.4,311.3,185.2,298.9,182.1,287z"/>
	<path class="st1" d="M61.2,148.1c0.3,0.7,0.6,1.4,0.9,2.1c-0.3,10.7,0.4,21.2,3.9,31.4c0.5,1.5,0.7,3.2,2.1,4.4
		c0.4,0.5,0.3,1-0.1,1.5c-2.3-0.6-2.6-2.7-3.2-4.6C60.9,171.5,60.1,159.9,61.2,148.1z"/>
	<path class="st1" d="M86.9,54.2c6.1,0,12.1-0.8,18.1,0.5c0.8,0.4,0.8,0.9,0,1.3c-8.8,0-17.6,0.7-26.3-0.7
		C81.3,53.5,84.3,55.3,86.9,54.2z"/>
	<path class="st1" d="M92.1,176.1c7.9-1.3,14.3,1.5,19.8,7c2.9,2.9,5.8,5.9,8.7,8.9c-4.2-0.3-5.7-4.1-8.2-6.5
		c-5.7-5.6-12-9.4-20.3-8.5c-0.2-0.2-0.3-0.4-0.2-0.6C91.9,176.2,92,176.1,92.1,176.1z"/>
	<path class="st1" d="M86.9,54.2c-2.6,1.4-5.5,0.4-8.2,1.1c-8.3,0.1-16.5-0.5-24.7-1.4c0.4-0.3,0.9-0.7,1.3-1
		C65.9,53.2,76.4,53.7,86.9,54.2z"/>
	<path class="st1" d="M93,198.9c0-0.3,0-0.7,0-1c10.2,1.4,17.8,6.9,23.5,15.2c-1.5,0.6-2.1-0.7-2.8-1.5
		C108.2,205,101.3,200.8,93,198.9z"/>
	<path class="st1" d="M153.6,256c-1.8,0.6-2.2-1.1-3-2c-4-4.4-8.1-8.8-12.1-13.3c-0.8-0.9-2.2-1.7-1.5-3.3
		C143,243.2,148.7,249.2,153.6,256z"/>
	<path class="st1" d="M68,187.4c0-0.5,0-1,0.1-1.5c4.5,0.6,7.9-1.9,11.6-3.7c1.8-0.8,3.2-2.5,5.4-2.3C80,184,75,188,68,187.4z"/>
	<path class="st1" d="M87,88.9c-2.9,6.5-6.6,12.6-11.1,18.1C78.4,100.3,82.1,94.3,87,88.9z"/>
	<path class="st1" d="M135,236.6c-4.6-4.6-9.9-8.6-12.1-15.1C127,226.5,132.3,230.5,135,236.6z"/>
	<path class="st1" d="M67.2,97.8c-0.3,0.4-0.6,0.7-1,1.1c-0.6-3.3-3.1-5.3-5.2-7.5c-1.1-1.2-3.4-1.6-3-4
		C61.8,90.2,65.9,92.7,67.2,97.8z"/>
	<path class="st1" d="M92,76.9c-1,4.3-0.6,9.2-5.1,12.1C89.2,85.3,88.7,80.3,92,76.9z"/>
	<path class="st1" d="M101.2,69c-3.1,2.7-6.2,5.4-9.3,8.1C93.5,72.6,97,70.4,101.2,69z"/>
	<path class="st1" d="M105,55.9c0-0.4,0-0.8,0-1.3c6,1.7,6.8,3.3,3.9,7.9C109.2,59.4,108.9,56.6,105,55.9z"/>
	<path class="st1" d="M57.6,87c-4.6-1.9-5.1-4.4-1.5-8.2C54.2,82,55.7,84.5,57.6,87z"/>
	<path class="st1" d="M92.1,176.1c0,0.3,0,0.6-0.1,0.8c-2.3,1.2-4.3,3-7,3.1C86.7,177.6,89.3,176.7,92.1,176.1z"/>
	<path class="st1" d="M60,75.6c0.9-3.2,3.7-4.7,6.1-6.6C65.4,72.4,62.4,73.7,60,75.6z"/>
	<path class="st1" d="M124.6,195.9c3.1,0.5,5,2.5,6.5,5.1C128.1,200.4,126.4,198.1,124.6,195.9z"/>
	<path class="st1" d="M193,75c0.4,0.2,1,0.2,1.2,0.5c14.6,18.7,24.7,39.3,27,63.3c0.4,1.1-0.1,1.4-1.1,1.2
		c-2.6-22.6-11.3-42.7-24.9-60.9C194.3,77.9,192.5,77,193,75z"/>
	<path class="st1" d="M248.9,234c0.9-0.4,1.6,0.1,2.3,0.5c18.9,11.4,37.8,22.8,56.6,34.2c0.9,0.5,2.3,0.8,2.2,2.3
		c-7.4-2.9-13.6-7.9-20.4-11.9c-12.4-7.3-24.8-14.7-37.1-22.2C251.2,236.2,249.3,235.9,248.9,234z"/>
	<path class="st1" d="M342.8,326c-0.3-0.4-0.7-0.8-1-1.2c0.4-4.6,0.9-9.2,1.2-13.9c0.8-10.9-3.9-19.3-12.6-25.5
		c-6-4.2-12.1-8.1-18.2-12.2c-0.9-0.6-2.3-0.7-2.3-2.2c11.2,5.7,22.3,11.8,30.1,22.1c5.5,7.3,5,15.9,3.9,24.5
		C343.5,320.3,343.1,323.2,342.8,326z"/>
	<path class="st1" d="M203.9,202.1c2.3,7,8.3,10,14.3,12.9c4.5,2.2,8.9,4.3,13.3,6.6c1.6,0.8,3.2,1.8,4,3.5
		c-9.2-5.1-19.2-8.4-27.7-14.6c-2.4-1.8-4.3-4.1-5-7.2C202.4,202.1,202.9,201.9,203.9,202.1z"/>
	<path class="st1" d="M166.9,48c8.1,5.4,14.5,12.6,20.6,20.1c-2.1,0.2-2.8-1.6-3.8-2.8C178.5,59.2,171.8,54.5,166.9,48z"/>
	<path class="st1" d="M137.9,24.9c5.4,1.2,8.8,5.4,12.9,8.6c2.9,2.3,6.3,4.1,8.2,7.5c-3.8-0.8-5.8-4.1-8.6-6.1
		C146.1,31.8,142.1,28.3,137.9,24.9z"/>
	<path class="st1" d="M221.2,152.2c0.2,7.7-0.3,15.4,0.7,23c0.1,1.1,0.4,2.3-0.9,3.1c-1.8-9.7-0.9-19.5-0.8-29.2
		C222.5,149.5,221.2,151,221.2,152.2z"/>
	<path class="st1" d="M221.2,152.2c-0.3-1-0.7-2.1-1-3.1c0-3.1,0-6.1-0.1-9.2c0.4-0.4,0.7-0.8,1.1-1.2
		C222.8,143.2,222.1,147.7,221.2,152.2z"/>
	<path class="st1" d="M122.2,23.8c-0.4,0.3-0.7,0.6-1.1,0.9c-3.1-0.8-6.3-1.7-9.4-2.5c0.4-0.4,0.8-0.7,1.2-1.1
		C116.1,21.8,119.3,22.1,122.2,23.8z"/>
	<path class="st1" d="M158.9,40.9c3.5,1.5,6.2,3.8,8.1,7.1C163.6,46.5,160.8,44.2,158.9,40.9z"/>
	<path class="st1" d="M203.9,202.1c-0.4,0.4-0.7,0.8-1.1,1.2c-1.9-3.8-1.1-6.9,2.2-9.5C204.8,196.5,202.8,199.1,203.9,202.1z"/>
	<path class="st1" d="M221.8,183.3c-2.4,2.5-6,2.7-8.9,4.3C214.9,184,218.3,183.5,221.8,183.3z"/>
	<path class="st1" d="M240.4,229c3.7,0.3,6.3,2.5,8.6,5.1C245.5,233.4,243,231.1,240.4,229z"/>
	<path class="st1" d="M188,68.4c2,2,4.5,3.6,5.1,6.6C190.6,73.4,188.3,71.7,188,68.4z"/>
	<path class="st1" d="M432,113c1.3-0.1,1.6,1,2.1,1.7c8,12.9,15,26.2,19.3,40.8c3.3,11.3,9.2,20.9,17.8,28.9
		c1.2,1.1,2.3,2.4,3.4,3.6c-1.6,0.6-2.5-0.7-3.4-1.5c-8.2-7.3-14.7-15.9-17.9-26.4c-4.8-16-11.9-30.8-20.7-44.9
		C432.1,114.5,431.6,113.9,432,113z"/>
	<path class="st1" d="M578.9,299.9c7.7,6.5,14.4,14,21.6,21.1c-0.3,0-0.8,0.3-0.9,0.1C592.1,314.7,584.5,308.3,578.9,299.9z"/>
	<path class="st1" d="M555.9,268.7c5.7,8.1,11.4,16.2,17.1,24.4C565.7,286.1,559.4,278.4,555.9,268.7z"/>
	<path class="st1" d="M510.9,213.9c7.9,5.5,14.8,12,20.1,20.1C524,227.7,517.2,221.1,510.9,213.9z"/>
	<path class="st1" d="M413.9,92.9c7.9,5,13.8,11.9,18.1,20.1C426,106.4,420,99.7,413.9,92.9z"/>
	<path class="st1" d="M414.2,60.9c0.3-0.7,0.6-1.4,0.9-2.2c1.6,3,1,6.1,0.1,9.1c-1.6,5.1-3.4,10.2-5.1,15.2c-0.4-0.2-0.7-0.5-0.8-1
		C410.7,75,414.8,68.5,414.2,60.9z"/>
	<path class="st1" d="M539.9,244.6c5.6,5.7,9.7,12.5,13.6,19.4c-0.2,0-0.4,0.2-0.5,0.1C548,258.1,543.3,251.8,539.9,244.6z"/>
	<path class="st1" d="M484.9,195c5,1.5,8.8,4.7,12.6,8.1C492.5,201.6,488.6,198.5,484.9,195z"/>
	<path class="st1" d="M409.2,82.1c0.3,0.3,0.6,0.6,0.8,1c-1,4.3,1.8,7,4,10C408,91.4,408.6,86.8,409.2,82.1z"/>
	<path class="st1" d="M572.9,292.9c2.8,1.7,5,4,6.1,7.1C576,298.5,574,296.2,572.9,292.9z"/>
	<path class="st1" d="M477.6,190.9c3.1,0.3,5.6,1.6,7.4,4.1C482,194.7,479.7,193,477.6,190.9z"/>
	<path class="st1" d="M530.9,233.9c2.8,1.2,4.1,3.7,5.6,6.1C533.5,239.1,531.9,236.8,530.9,233.9z"/>
	<path class="st1" d="M504.5,209c3.2,0.4,5.1,2.5,6.5,5.1C508,213.4,506.4,211.1,504.5,209z"/>
	<path class="st1" d="M546.8,148c2.2,11.1,9.4,19.4,16.4,27.5c17.1,19.6,39.2,32.1,62.8,42.2c1.4,0.6,3.3,0.5,4,2.4
		c-0.5,0-1,0.2-1.5,0c-31.7-12.7-60-29.9-78.6-59.9c-2.1-3.4-4.3-6.8-4.1-11C545.3,148.1,545.9,148,546.8,148z"/>
	<path class="st1" d="M546.8,148c-0.3,0.4-0.6,0.8-0.9,1.2c-0.3-1.1-0.8-2.2-0.8-3.3c0.9-17.4-6.8-31.7-16.4-45.2
		c-0.9-1.2-1.7-2.5-2.5-3.7c0.5-0.7,0.9-0.7,1.5-0.1C539.5,111.9,547.6,128.3,546.8,148z"/>
	<path class="st1" d="M669,237.9c-2.3,6.1-4.7,12.3-6.9,18.4c-2.2,6.1-2.8,12.6-3.9,18.9c-1-0.4-0.4-1.5-1-2.2
		C658.5,260.5,661.9,248.6,669,237.9z"/>
	<path class="st1" d="M658.8,285c1.7,10.6,6.3,19.8,13.7,27.6c1.1,1.1,2.9,1.9,2.6,3.9c-9.7-7.8-15.6-17.9-17.2-30.3
		C657.3,285.2,657.9,285,658.8,285z"/>
	<path class="st1" d="M649,226.2c6.3,2.1,12.6,4.1,18.8,6.4c2.8,1,4.9,2.7,1.2,5.4c0.5-2.6-0.9-3.8-3.2-4.6
		c-5.6-1.9-11.2-3.9-16.8-5.9C648.3,227.1,648.3,226.6,649,226.2z"/>
	<path class="st1" d="M501,67c0.3-0.3,0.6-0.6,0.9-0.9c4.5,5.3,9.8,9.8,13.1,16C509.4,77.9,505.7,71.9,501,67z"/>
	<path class="st1" d="M649,226.2c0,0.4,0,0.9,0,1.3c-6.4-2.4-13.3-3.6-19-7.6C636.6,221,642.6,224.3,649,226.2z"/>
	<path class="st1" d="M689.9,327c4.9,1.3,9.4,3.6,13.1,7.1C698.2,332.6,693.7,330.5,689.9,327z"/>
	<path class="st1" d="M658.8,285c-0.3,0.4-0.6,0.8-0.9,1.2c-1.6-4.3-0.8-8.8-0.7-13.2c0.3,0.7,0.7,1.5,1,2.2
		C658.4,278.5,658.6,281.8,658.8,285z"/>
	<path class="st1" d="M527.7,96.9c-0.5,0-1,0.1-1.5,0.1c-2.1-3-5.2-5.3-6.2-9C523.6,90,525.2,93.8,527.7,96.9z"/>
	<path class="st1" d="M680.7,320.9c3.8,1,6.8,3.3,9.4,6.1C686.1,326.2,683.2,324,680.7,320.9z"/>
	<path class="st1" d="M514.9,81.9c2.6,1.3,4.3,3.4,5.1,6.1C517.5,86.7,515.7,84.8,514.9,81.9z"/>
	<path class="st1" d="M191,49c2.2,0.2,2.7,2.3,3.7,3.6c15.2,20.2,24,43.4,32.2,67c4.2,12.1,8.2,24.2,9.8,36.9
		c0.7,5.5,3.8,9.9,6.7,14.3c2.3,3.5,4.4,7.1,5.3,11.2c0.4,1.7,1.6,4-1.2,5.1c0.9-4.8-1.1-9-3.7-12.6c-5.8-8-7.9-17.1-10.4-26.6
		c-8.8-34.4-20.1-67.8-41.7-96.8C191.2,50.5,190.6,49.9,191,49z"/>
	<path class="st1" d="M246.7,222.9c0.9-0.4,1.6,0,2.3,0.4c20.3,12.4,42.4,20.9,64,30.6c6.2,2.8,12.5,5.4,17.6,10
		c-0.5,0-1.1,0.3-1.4,0.1c-19.2-11.4-40.6-18.1-60.3-28.3C261.2,232,253.1,228.8,246.7,222.9z"/>
	<path class="st1" d="M353.1,299.7c-0.3,0.8-0.6,1.5-1,2.3c-0.5-8.1-2.9-15.6-7.3-22.4c-0.5-0.8-1.4-1.5-0.9-2.6
		C350.5,283.2,352.6,291.1,353.1,299.7z"/>
	<path class="st1" d="M173.9,32c7.3,4.1,12.8,10.1,17.1,17.1C185.3,43.4,179.6,37.7,173.9,32z"/>
	<path class="st1" d="M245.3,189.9c-4.6,4.6-11,6.2-16.3,9.6c1.4-3.7,5.1-4.2,8-5.8C239.6,192.3,242.1,190.3,245.3,189.9z"/>
	<path class="st1" d="M334,266.5c4.2,2.8,8,5.8,10.1,10.6C340.3,273.9,336.4,270.9,334,266.5z"/>
	<path class="st1" d="M226,207.4c4,2.4,8.5,4.2,11.1,8.6C233,213.6,228.5,211.8,226,207.4z"/>
	<path class="st1" d="M165.9,25.9c3.5,1,6.3,2.9,8.1,6.1C170.8,30.8,168.1,28.7,165.9,25.9z"/>
	<path class="st1" d="M236.9,215.9c3.2,0.7,5.4,2.9,7.6,5.1C241.2,220.6,238.7,218.7,236.9,215.9z"/>
	<path class="st1" d="M577,168c17,20,40.1,30.2,63.6,39.7c13.4,5.4,26.8,10.6,40.9,14.1c7.2,1.8,8.7,4.6,6.4,9.8
		c0.5-5.6-3-7.5-7.6-8.7c-22.2-5.5-43.1-14.4-63.7-24c-13.8-6.4-26.6-14.4-37-25.8c-1-1.1-1.8-2.3-2.8-3.5
		C576.5,169.1,576.6,168.5,577,168z"/>
	<path class="st1" d="M577,168c0,0.5-0.1,1.1-0.1,1.6c-7.7-8.2-11.7-18.4-14.5-29c-4.3-16.2-10.1-31.5-21.9-44
		c-0.6-0.6-0.9-1.4-0.5-2.3c9.7,9.4,16.3,20.7,20.2,33.6c2.5,8.4,5.2,16.7,8.1,25C570.1,158.6,573.7,163.2,577,168z"/>
	<path class="st1" d="M509.3,10.7c1.7,3.2,0.2,6.2-1.1,9c-4.3,9.3-7.1,19-6.3,29.3c-0.4,0.8-0.8,0.8-1.2,0c-2.1-8.5,0.9-16.3,3.7-24
		c1.6-4.3,4.2-8.3,3.8-13.2C508.5,11.5,508.4,10.6,509.3,10.7z"/>
	<path class="st1" d="M671.2,267c-0.8,10.7,2.7,19.7,10.1,27.3c0.9,0.9,2.2,1.6,1.8,3.2c-9.9-7.8-14.5-17.9-12.9-30.5
		C670.5,266.7,670.8,266.7,671.2,267z"/>
	<path class="st1" d="M500.7,49.1c0.4,0,0.8,0,1.2,0c1.3,8.9,5.9,16,12.1,22.3c1.4,1.5,3.6,2.4,4.1,4.7
		C508.3,69.6,502.1,60.8,500.7,49.1z"/>
	<path class="st1" d="M671.2,267c-0.3,0-0.7,0-1,0c1.1-10.4,5.6-19.4,11.9-27.6c0.5,1.5-0.4,2.6-1.1,3.6
		C676.1,250.4,673.1,258.5,671.2,267z"/>
	<path class="st1" d="M692.4,305c7.7,3.1,14.5,7.5,20.6,13.1C705.6,314.6,698.8,310,692.4,305z"/>
	<path class="st1" d="M517.9,76c6.9,4.1,12.9,9.4,18.6,15.1c-3,0.4-4.2-2.3-5.9-3.8C526.3,83.6,521.2,80.9,517.9,76z"/>
	<path class="st1" d="M509.3,10.7c-0.4,0.4-0.7,0.8-1.1,1.2c-0.5-4.3-4.1-6.2-6.7-8.9C506.2,3.4,508,6.8,509.3,10.7z"/>
	<path class="st1" d="M712.9,318c3.5,0.5,3.9,3.9,5.6,6.1C715,323.5,714.6,320.2,712.9,318z"/>
	<path class="st1" d="M60.1,207c-4.1-0.6-6.6-3.6-9-6.4c-9.3-10.6-13-23.3-13.2-37.2c0-3.8,0.2-7.6,0.3-11.5c0.9-0.2,1.5,0,1,1.1
		c-0.2,9.5,0.1,18.9,2.9,28.1C45.2,191.8,51.4,200.3,60.1,207z"/>
	<path class="st1" d="M44.9,120.9c0.7-7.8-0.9-14.8-6.8-20.4c-2.7-2.6-6.4-3.4-9.5-5.2c-3.7-2.2-5.4-4.8-2.6-8.8
		c-0.6,4.2,1.1,6.7,5,8.5c13.1,6.1,16.6,12.7,14.8,27C45,122.1,44.4,122,44.9,120.9z"/>
	<path class="st1" d="M44.9,120.9c0.3,0.3,0.6,0.7,0.9,1c-2.8,10.3-5,20.7-6.7,31.2c-0.3-0.4-0.7-0.7-1-1.1
		C38.9,141.4,41.5,131.1,44.9,120.9z"/>
	<path class="st1" d="M129.1,256.1c-8.1-5.3-14.6-12.2-20.1-20.1C116.1,242.1,122.7,249.1,129.1,256.1z"/>
	<path class="st1" d="M146.7,270.9c-0.5,0-1.1,0.1-1.6,0.1c-5.2-5.1-11.7-9-16.1-15C135.8,259.9,141,265.7,146.7,270.9z"/>
	<path class="st1" d="M84.1,215.8c-5-1.5-10.1-3-15.1-4.4c-0.8-0.4-0.7-0.9,0-1.3c5.4,1.4,11.1,2.2,16.1,4.8
		C84.9,215.4,84.6,215.7,84.1,215.8z"/>
	<path class="st1" d="M109.1,236c-4.8-3.5-9-7.5-12.1-12.6C101.7,227,106.1,230.9,109.1,236z"/>
	<path class="st1" d="M84.1,215.8c0.3-0.3,0.7-0.6,1-0.9c4.7,1.5,8.4,4.4,11.5,8.1C91.6,221.9,89,216.9,84.1,215.8z"/>
	<path class="st1" d="M69,210.1c0,0.4,0,0.9,0,1.3c-3.2-1-6.8-1.4-9-4.4C63.3,207.1,65.8,209.5,69,210.1z"/>
	<path class="st1" d="M624.7,185.9c1.3-0.6,2.2,0.3,3.2,0.9c13.9,8.2,29,13.1,44.8,15.9c6.3,1.1,12.2,3.1,18.1,5.6
		c16.3,6.9,19.3,21.9,7.2,35.3c1.2-4.8,4.7-8.6,5.2-13.8c0.8-8-1.3-13.4-8.4-17.6c-8.6-5-18.1-7.3-27.8-9.1
		c-14-2.7-27.2-7.5-39.5-14.6C626.4,187.8,625,187.5,624.7,185.9z"/>
	<path class="st1" d="M550,94.4c6.6,5.9,12.6,12.1,16.7,20.2c8,15.9,17.2,31.1,28.8,44.7c0.4,0.4,0.4,1.1,0.6,1.7
		c-5.6-3.8-8.7-9.7-12.5-15c-6.1-8.5-11.5-17.5-16.2-26.8c-3.9-7.6-8.3-14.7-14.7-20.5C551.4,97.7,549.3,96.8,550,94.4z"/>
	<path class="st1" d="M686.1,258.9c-0.5,1.2-0.9,2.5-1.5,3.6c-2.4,4.1-1.8,7.7,1.2,11.4c4.8,5.9,10,11.5,15.8,16.4
		c1.3,1.1,3.3,1.6,3.5,3.8c-5.3-2-8.6-6.4-12.5-10.1c-2.8-2.6-5.2-5.6-7.5-8.6C680.2,269.2,680.5,265.1,686.1,258.9z"/>
	<path class="st1" d="M521.8,20.8c0.3,0.4,0.7,0.8,1,1.1c-0.2,6.3-2.9,11.9-5,17.6c-1.6,4.2-3.1,8.3-4.6,12.5
		c-0.4,0.8-0.7,0.8-1.1,0c0.5-4.9,2.7-9.2,4.6-13.6C519.1,32.7,520.6,26.8,521.8,20.8z"/>
	<path class="st1" d="M522.4,68c0.5,0,1.2-0.2,1.4,0c7.4,7.4,14.9,14.8,22.2,22.2c0.2,0.2,0,0.9,0,1.4
		C538.2,83.7,530.3,75.8,522.4,68z"/>
	<path class="st1" d="M596,160.9c5.1,4.3,9.9,8.9,14.1,14.1C604.2,171.6,599.4,166.9,596,160.9z"/>
	<path class="st1" d="M512.1,52c0.4,0,0.7,0,1.1,0c-0.5,4.1,1.2,7.1,4.2,9.8c1.8,1.6,4.5,2.7,4.6,5.7
		C517.3,63.3,510.5,60.4,512.1,52z"/>
	<path class="st1" d="M609.9,175c3.9,1.5,6.6,4.5,9.6,7.1C615.3,181.1,612.3,178.4,609.9,175z"/>
	<path class="st1" d="M692,250.4c-0.9,3.7-3.2,6.4-6.1,8.6C686.8,255.4,689.5,252.9,692,250.4z"/>
	<path class="st1" d="M597,140c-0.1,0.5-0.1,1.1-0.2,1.6c-9.6-10.4-17.4-22-22.9-35.1c1.7,0.7,2.4,2.3,3.1,3.7
		C582.5,121,589.3,130.8,597,140z"/>
	<path class="st1" d="M704.1,262.6c0.2,1.3-0.7,2.2-1.2,3.2c-2.8,6.1-1.9,9.6,3.3,13.9c2.6,2.2,6.2,3.1,7.9,6.3
		c-4.9-1.8-9-4.7-12.3-8.7C698.4,273.1,699.3,268.2,704.1,262.6z"/>
	<path class="st1" d="M535.1,56.5c-4.9,10.6,1.8,16.6,8.9,22.5c-0.5,0.4-1,0.4-1.5,0.1c-2.1-1.8-4.4-3.4-6.4-5.4
		C530.7,68.2,530.5,63.4,535.1,56.5z"/>
	<path class="st1" d="M543.8,36c0.4,0,0.7,0,1.1,0c-0.5,4-1.7,7.8-3.9,11.3C540.4,43.1,542.7,39.7,543.8,36z"/>
	<path class="st1" d="M552,86.4c3,2.2,6.3,4.2,8.1,7.6C556.5,92.4,553.4,90.3,552,86.4z"/>
	<path class="st1" d="M559.9,93.9c3.7,1.4,6,4.4,8.6,7.1C564.5,100.1,562.1,97.2,559.9,93.9z"/>
	<path class="st1" d="M542.5,79.1c0.5,0,1-0.1,1.5-0.1c2.7,2.2,5.5,4.3,7.6,7C547.3,85.4,545.4,81.5,542.5,79.1z"/>
	<path class="st1" d="M714.1,250.7c-1.3,3.8-4.3,6.2-7.1,8.8C707.9,255.5,711,253.1,714.1,250.7z"/>
	<path class="st1" d="M262,172c-6.2-4.8-10.1-11.1-12.7-18.4c-12.5-36.1-30.1-69.8-48.7-103c-1.8-3.3-5-5.8-5.7-9.7
		c4.8,3.7,7.5,9.2,10.2,14.3c17.3,32.2,34.5,64.4,46.1,99.2c1.7,5.2,5,9.3,8.3,13.5C260.6,169.2,262.4,170,262,172z"/>
	<path class="st1" d="M335,254c-0.5,0-1.1,0.2-1.4-0.1c-21.3-16-46.4-23-71.2-30.7c-0.9-0.3-1.9-0.5-2.9-0.8
		c-8.7-3-9.6-8.9-2.5-15.4c-4.8,11-4.2,11.8,7.7,15.4c21.1,6.4,42.2,12.8,61.2,24.5C329.2,248.8,333,250.4,335,254z"/>
	<path class="st1" d="M263,200.5c-0.3-2.4,1.7-3.5,2.8-5c2.2-2.9,3.8-5.9,3.3-9.6c0.4-0.4,0.3-1.2,1.1-1.2
		C272.5,192.2,267.1,196.1,263,200.5z"/>
	<path class="st1" d="M270.2,184.8c-0.4,0.4-0.8,0.8-1.1,1.2c-1-5.4-5.3-9.1-7.1-14C266.6,175,268.5,179.8,270.2,184.8z"/>
	<path class="st1" d="M347,266.1c-4.4-3.6-8.5-7.7-12.1-12.1C340.2,256.8,344.4,260.7,347,266.1z"/>
	<path class="st1" d="M257,207.1c0.8-3,2.7-5,5.5-6.1C261.1,203.4,259.5,205.6,257,207.1z"/>
	<path class="st1" d="M370,27.9c0-0.3,0-0.6,0-1c15.9,4.3,31.2,10,45.1,18.9c9.4,6,12.4,16.6,17.8,25.3c3.5,5.6,5.6,12,6.2,18.7
		c0.2,1.8,1.4,3,2.3,4.3c7.7,10.7,14.8,21.6,18.9,34.2c0.4,1.1,0.6,2.2,0.9,3.3c0.4,1.1-0.1,1.3-1,1.2
		c-3.7-13.2-10.6-24.7-18.5-35.7c-2-2.8-3.5-5.7-4.2-9.3c-2.6-13-10-23.8-16.7-34.8c-3.2-5.2-8.9-7.9-14.2-10.7
		C394.9,36.2,382.4,32.2,370,27.9z"/>
	<path class="st1" d="M463.8,143.1c0.2,4.9,0.8,9.9,0.4,14.8c-0.7,8.7,2.6,15.2,9,20.9c4.1,3.7,9.5,5.7,12.9,10.2
		c-8.1-3.9-15.2-9.1-20.4-16.6c-2-2.9-2.8-6.3-2.8-9.9c0-5.8-0.1-11.6-0.1-17.4C462.6,144.3,461.9,143.1,463.8,143.1z"/>
	<path class="st1" d="M509,208c4.8,1.6,8.3,5.1,12.2,7.9c5.3,3.7,11.4,6.4,15.9,11.2c-6.1-1.9-10.8-6.1-15.9-9.6
		C516.9,214.6,512,212.4,509,208z"/>
	<path class="st1" d="M566,243.3c-0.3,0.2-0.7,0.5-1,0.7c-9.2-4.6-17.8-10-26.6-15.3c-0.6-0.4-1.6-0.7-1.4-1.8
		c4.5,0.8,7.7,4.1,11.5,6.2C554.4,236.3,560.1,239.9,566,243.3z"/>
	<path class="st1" d="M485.9,188.9c5.4,3.2,10,7.4,14.1,12.1C494.4,198.1,489.8,194,485.9,188.9z"/>
	<path class="st1" d="M463.8,143.1c-0.3,0.7-0.7,1.4-1,2.2c-0.9-4.1-1.7-8.2-2.6-12.3c0.3-0.4,0.7-0.8,1-1.2
		C463,135.3,463.3,139.2,463.8,143.1z"/>
	<path class="st1" d="M499.9,201c3.8,1.4,6.7,3.9,9.1,7.1C505.3,206.7,502.2,204.3,499.9,201z"/>
	<path class="st1" d="M343,9c0.3-0.3,0.6-0.6,0.9-0.9c12.2,9.7,27.3,11.5,41.8,14.8c8.4,1.9,16.9,3.7,24.8,7.1
		c3,1.3,6.3,2.5,7.4,6.1c-14.6-9.7-31.8-11-48.1-15C360.2,18.7,350.7,15.9,343,9z"/>
	<path class="st1" d="M417.9,35.9c3,1.1,4.1,3.9,4.9,6.3c6.1,17.5,16.8,32.2,27.8,46.8c0.6,0.9,1.9,1.6,1.3,3
		c-6.9-6.4-11.7-14.6-17-22.2c-4.7-6.7-8.5-13.8-11.2-21.5C422.3,44,419.9,40,417.9,35.9z"/>
	<path class="st1" d="M452,92c2.8,1.1,3.8,3.9,5.4,6.1c10,13.3,19,27.3,24.3,43.3c0.3,0.8,0.4,1.6,0.5,2.4c0.4,1-0.1,1.3-1,1.2
		c-5.1-17.5-14.9-32.4-25.5-46.8C454.3,96.2,452.1,94.7,452,92z"/>
	<path class="st1" d="M577,235c7.8,4.1,12.4,11,16,18.6c4.1,8.6,6.2,17.7,4.9,27.4c-1.9,0.1-1.3-1.1-1-2.1
		c0.2-15.9-5.3-29.4-16.9-40.3C578.9,237.4,576.9,237,577,235z"/>
	<path class="st1" d="M492.9,174c3.8,1,6.3,4.1,9.2,6.4c9.9,7.8,19.6,15.8,29.4,23.7c-1.3,0.6-2.2-0.3-3.1-1
		c-11.6-9.1-23.1-18.3-34.6-27.5C493.4,175.2,493.2,174.5,492.9,174z"/>
	<path class="st1" d="M534.7,206.9c3.8,0.6,6.2,3.4,8.9,5.5c4.8,3.6,10.4,6,14.4,10.6C549.3,219.1,541.8,213.3,534.7,206.9z"/>
	<path class="st1" d="M481.2,144.9c0.3-0.4,0.7-0.8,1-1.2c2.3,5.2,3.1,10.8,3.6,16.3c-0.3,0.4-0.3,1.1-1,1.1
		C483.6,155.8,482.4,150.3,481.2,144.9z"/>
	<path class="st1" d="M484.8,161.2c0.3-0.4,0.7-0.8,1-1.1c0.1,5.9,4.3,9.6,7.2,14C487.5,171.6,485.4,166.9,484.8,161.2z"/>
	<path class="st1" d="M565.9,227.9c4.4,1.3,8.3,3.3,11.1,7.1C572.9,233.4,569,231.3,565.9,227.9z"/>
	<path class="st1" d="M596.9,278.8c0.3,0.7,0.7,1.4,1,2.1c0,2,0,4.1,0,6.1c-0.3,0.7-0.7,1.4-1,2.1
		C595.4,285.7,595.8,282.3,596.9,278.8z"/>
	<path class="st1" d="M557.9,222.9c3.2,0.9,6,2.4,8.1,5.1C562.8,227.3,560,225.7,557.9,222.9z"/>
	<path class="st1" d="M53,214c-1.6,0.3-2-1.1-2.5-2c-11.1-18.4-22.7-36.6-27.9-57.9c-2.4-9.9-3.2-19.9-2.5-30.1c1.9,0,1.2,1.1,1,2.1
		c-0.9,24.9,8,46.8,20.3,67.7C45.4,200.6,49.2,207.3,53,214z"/>
	<path class="st1" d="M151.1,295c-9.7-5.4-18.5-11.7-24.1-21.6C134.2,281.5,143,287.9,151.1,295z"/>
	<path class="st1" d="M75.1,234c-8.2-5.7-16.7-11.2-22.1-20.1C60,220.9,68.4,226.6,75.1,234z"/>
	<path class="st1" d="M164.2,316.7c-0.3,0.4-0.7,0.8-1,1.2c-1.4-9.1-5-17-12.2-23c5.1,1.1,7.3,5.2,9.5,9.2
		C162.6,308,163.8,312.3,164.2,316.7z"/>
	<path class="st1" d="M102.1,255c-6.2-2.9-11.5-7-16.1-12.1C92,246.1,97.3,250.2,102.1,255z"/>
	<path class="st1" d="M86.1,243.1c-4.5-2.1-8.2-5.1-11.1-9.1C79.4,236.1,83.1,239.1,86.1,243.1z"/>
	<path class="st1" d="M21.2,126.2c-0.3-0.7-0.7-1.4-1-2.1c0-2.7,0-5.5,0-8.2c0.3-0.4,0.3-1.2,1.1-1.1
		C22.9,118.6,22.2,122.4,21.2,126.2z"/>
	<path class="st1" d="M112.6,262c-4.6-0.8-7.8-3.7-10.6-7.1C106.2,256.3,109.3,259.2,112.6,262z"/>
	<path class="st1" d="M21.2,114.8c-0.4,0.4-0.7,0.8-1.1,1.1c-0.4-3.6-3.1-6-4.7-8.9C19.6,107.9,20.1,111.6,21.2,114.8z"/>
	<path class="st1" d="M124,271.6c-2.3-1.7-4.8-3.1-6.3-5.6C120.8,266.7,123.3,268.2,124,271.6z"/>
	<path class="st1" d="M594.6,81.9c-1.3,2.2-0.2,4.2,0.6,6.2c8.5,21.3,24.2,36.3,42.8,48.7c16.2,10.9,33.9,18.9,51.6,27.1
		c2.7,1.3,5.9,2.1,7.5,5.1c-30.6-14.3-62.1-27.1-85.8-52.6c-7.9-8.5-14-18.1-18.1-28.9C592.5,85.6,590.9,83,594.6,81.9z"/>
	<path class="st1" d="M702,190c-0.6-0.1-1.4-0.1-1.8-0.4c-13.2-11.1-29.2-16.7-45-22.7c-13.2-5-26.3-10.3-37-19.8
		c-2.4-2.1-5.4-3.8-6.3-7.2c3.1,1,4.6,4,7,6c11.2,9.5,24.6,14.9,38.1,20.1c14.2,5.5,28.8,10.2,40.9,20
		C699.4,187.2,701.6,187.8,702,190z"/>
	<path class="st1" d="M612,140c-3-1.1-4.2-4-6-6.2c-8.1-10.7-14.6-22.6-23.9-32.4c-4.2-4.4-9.8-7.2-13.2-12.4
		c5.8,2.9,10.4,7.4,14.7,12.1C594.7,112.9,602.7,126.9,612,140z"/>
	<path class="st1" d="M569.9,56.3c-0.8-7.3-4.8-13.3-8-19.5c-4.3-8.4-9.6-16.2-15.1-23.9c-0.9-1.3-2.6-2.3-1.9-4.3
		c11.2,13.1,19.4,27.9,26,43.8C571.5,53.7,571.5,55.2,569.9,56.3z"/>
	<path class="st1" d="M584.7,47.9c9,4,15.7,10.1,18.5,19.9c0.4,1.1-0.1,1.3-1,1.1c-2-7.8-7.3-13-13.5-17.6
		C587.2,50.3,585.3,49.9,584.7,47.9z"/>
	<path class="st1" d="M555.9,77.2c-2-5.7,0.5-11.9,6.2-15.2c-2.8,4.3-6.2,8.4-5.2,14.1C556.6,76.4,556.5,77.1,555.9,77.2z"/>
	<path class="st1" d="M555.9,77.2c0.3-0.4,0.7-0.7,1-1.1c1.4,4,5,6,7.9,8.6c1.5,1.3,3.7,2.1,4.2,4.4
		C563.9,85.9,558.7,82.9,555.9,77.2z"/>
	<path class="st1" d="M602.1,68.9c0.3-0.4,0.7-0.7,1-1.1c1.7,2.2,0.4,4.1-0.9,5.8c-2.1,3-4.5,5.6-7.3,7.9c-0.2-2.9,2.5-4,3.9-5.8
		C600.6,73.7,602.2,71.8,602.1,68.9z"/>
	<path class="st1" d="M696.9,169c4.8,2,9,4.9,12.1,9.1C704.4,175.8,700.4,172.8,696.9,169z"/>
	<path class="st1" d="M708.9,177.9c3.5,0.8,5.4,3.7,7.6,6.1C712.9,183.5,710.9,180.7,708.9,177.9z"/>
	<path class="st1" d="M562,62c1.8-2.7,4.3-4.5,7.5-5.1C567.4,59.3,565,61.2,562,62z"/>
	<path class="st1" d="M83.1,260.1c-3-0.4-4.5-3.1-6.6-4.8c-9.2-7.9-17.7-16.5-26-25.3c-1.1-1.1-2.8-1.9-2.6-3.9
		c6.9,5.5,12.5,12.4,18.9,18.5C72.2,249.7,78.5,254,83.1,260.1z"/>
	<path class="st1" d="M120,288.2c-0.3,0.3-0.6,0.5-1,0.8c-10-6.8-19.4-14.5-28.9-22.1c-0.6-0.5-1.5-0.8-1.2-1.9
		c5,2,8.4,6.1,12.6,9.2C107.8,278.7,113.8,283.5,120,288.2z"/>
	<path class="st1" d="M89.1,265.1c-2.9-0.7-4.8-2.5-6.1-5.1C85.7,260.7,87.7,262.6,89.1,265.1z"/>
	<path class="st1" d="M631.3,69.9c-1.4-4.2-4.5-6.7-8.4-8.6c-13.8-6.8-27.6-13.5-39.8-23c-1.2-0.9-3-1.4-3.1-3.4
		c2.7,0.2,4.2,2.5,6.1,3.9c12,8.7,25.3,15.2,38.5,21.8c3.5,1.8,6.5,3.9,7.6,8C632.6,69.6,632.3,70,631.3,69.9z"/>
	<path class="st1" d="M631.3,69.9c0.3-0.4,0.6-0.9,0.9-1.3c1.5,2.4,1.4,5.2,0.7,7.7c-5,17.9-0.6,32.9,13.5,45c0.5,0.4,1,0.9,0.7,1.7
		c-11-5.7-18.8-22.4-17.5-36.5C630,81,633.2,75.7,631.3,69.9z"/>
	<path class="st1" d="M618.2,40.9c10.4,2.5,20.3,6,29.2,12.2c8.5,5.9,11.6,14.1,11.5,24c-0.3,0.8-0.7,0.8-1.1,0.1
		c-0.2-0.8-0.7-1.6-0.7-2.3c0.5-12.3-7.2-19-16.8-24.3c-7.3-4-15.2-6.4-23.2-8.6C616.9,41,617.1,40.4,618.2,40.9z"/>
	<path class="st1" d="M700.3,154.1c-12.6-6.4-25.2-12.8-37.7-19.4c-1.8-0.9-3.9-1.7-4.9-3.8c5.9,1.4,10.4,5.5,15.7,8.1
		c9.7,4.8,19.7,8.9,28.7,15C701.5,154.4,700.9,154.5,700.3,154.1z"/>
	<path class="st1" d="M657.8,77.1c0.4,0,0.7,0,1.1-0.1c2.6,14.6,8.8,27.5,17.9,39c-0.1,0.5-0.4,0.8-0.8,0.9
		C666.1,105.4,659.7,92.3,657.8,77.1z"/>
	<path class="st1" d="M700.3,154.1c0.6,0,1.2-0.1,1.7-0.1c6.7,4,13.1,8.3,17.5,15.1c-2.9-0.1-3.7-2.9-5.4-4.4
		C709.8,160.6,705,157.6,700.3,154.1z"/>
	<path class="st1" d="M676,117c0.3-0.3,0.6-0.6,0.8-0.9c4.7,5.8,10.5,10.7,15.7,16c-3.2,0.4-4.4-2.4-6.2-4.1
		C682.6,124.6,678.9,121.2,676,117z"/>
	<path class="st1" d="M588,29c5.8,2.5,10.8,6.5,17,8.1c0.2,0.9,0,1.4-1.1,1C598.1,36,592,34.3,588,29z"/>
	<path class="st1" d="M603.9,38.1c0.4-0.3,0.7-0.7,1.1-1c4.4,1.1,9,1.9,13.2,3.8c-0.4,0.3-0.7,0.7-1.1,1
		C612.6,40.8,608.1,40.1,603.9,38.1z"/>
	<path class="st1" d="M580.1,35.1c-4.5-2.2-7.9-5.6-10.1-10.1C573.8,27.8,577.3,31.1,580.1,35.1z"/>
	<path class="st1" d="M655.6,129c-3.9-0.6-6.5-3-8.6-6.1C650.5,124,652.9,126.7,655.6,129z"/>
	<path class="st1" d="M668,60c5,4,7.6,9.7,11,14.8c4.6,7,9.6,13.6,13.1,21.3c-1.7,0.1-2-1.6-2.6-2.5c-7.2-10.7-14.3-21.4-21.4-32.2
		C667.8,61,668,60.4,668,60z"/>
	<path class="st1" d="M646,36.4c8.5,6.8,16.7,13.9,22.1,23.6C660.7,52.2,653.3,44.3,646,36.4z"/>
	<path class="st1" d="M77.6,281c-2.5,0.5-3.4-1.7-4.8-3c-15.2-14.9-26.5-32.8-38.6-50.1c0.3-0.9,0.8-1,1.3-0.2
		c6.5,9,12.9,18,19.4,27C61.7,264.2,69.5,272.7,77.6,281z"/>
	<path class="st1" d="M35.5,227.8c-0.4,0.1-0.9,0.1-1.3,0.2c-6.4-9.3-12.8-18.7-19.2-28c4.4,2.8,6.7,7.5,9.6,11.5
		C28.4,216.7,31.9,222.3,35.5,227.8z"/>
	<path class="st1" d="M15.1,200.1c-3.9-3-7-6.6-9.1-11.1C9.9,191.9,13,195.6,15.1,200.1z"/>
	<path class="st1" d="M84,286.2c0,0.5-0.1,1-0.1,1.5c-2.1-1.9-5.4-2.8-5.9-6.2C80,283,82,284.6,84,286.2z"/>
	<path class="st1" d="M124,324c-0.3,0.3-0.6,0.6-1,0.9c-14.7-10.6-32.1-13.9-49-18.7c-2.1-0.6-4.1-1.3-6.1-2c-0.6-0.4-0.6-0.7,0-1.1
		c15.1,4.1,30.5,7.2,44.8,13.9C116.8,318.8,120.8,320.8,124,324z"/>
	<path class="st1" d="M68,303.1c0,0.4,0,0.7,0,1.1c-2.6-0.1-3.8-2-4.5-4c-5.9-16.7-15.4-31.3-25.5-45.5c-0.5-0.8-1.5-1.4-1-2.6
		c2.5,0.9,3.4,3.4,4.7,5.3c9,12.7,17.3,25.9,22.5,40.8C64.9,300.1,65.8,302.1,68,303.1z"/>
	<path class="st1" d="M37,252c-6.4-6.8-12.1-13.9-16.1-22.4C26.9,236.7,32.6,243.9,37,252z"/>
	<path class="st1" d="M18.6,226c-3.2-0.8-4.6-3.3-5.6-6.1C15.8,221.1,17,223.7,18.6,226z"/>
	<path class="st1" d="M653.4,24c0.7-0.2,1.2-0.2,1.8,0.4C671,40.2,686.8,56.1,702.6,72c-0.6-0.1-1.4,0.1-1.8-0.3
		C684.4,56.4,668.6,40.5,653.4,24z"/>
	<path class="st1" d="M641.9,10.9c4.5,3.5,8.8,7.2,11.1,12.6C648.9,19.7,644.6,16.1,641.9,10.9z"/>
	<path class="st1" d="M24.8,328c2.4-17,3.7-34,0.4-51c0.3-0.4,0.3-1,1-1.1c3.4,10.5,3.1,21.3,2.4,32.1c-0.3,5-1,9.9-1.4,14.9
		c-0.8,9.8,0.9,11.7,10.8,13.3c0,2-1.3,1.2-2.3,1.1c-5.3-0.5-9.4-2.6-10.9-8.2c-0.2-0.2-0.3-0.5-0.2-0.7
		C24.6,328.1,24.7,328,24.8,328z"/>
	<path class="st1" d="M44.2,297.8c1.7,5.4,2.5,11,3.1,16.5c0.6,5.1,2.8,7.2,8.3,7.1c7.6-0.1,15.2-0.2,22.7,1.4
		c-0.1,0.7-0.8,0.7-1.3,1c-8-0.3-15.9-0.7-23.9-0.8c-4.2,0-6.5-1.8-7.1-6c-0.9-6-1.9-12.1-2.9-18.1
		C43.5,298.5,43.4,297.8,44.2,297.8z"/>
	<path class="st1" d="M44.2,297.8c-0.4,0.4-0.7,0.8-1.1,1.2c-3.2-16.6-7-33-17.2-47.1c-0.1-0.2,0-0.6,0.1-0.9
		c3.2,1.5,4.3,4.7,5.9,7.4C38.7,270.6,42.1,284,44.2,297.8z"/>
	<path class="st1" d="M106,349c-0.3,0.3-0.7,0.6-1,0.9c-11.3-6.9-24.3-8.3-36.7-11.7c-1.7-0.5-3.5-0.8-5.3-1.2c0-1.9,1.1-1.4,2.1-1
		c11.2,2.8,22.7,4.7,33.6,8.9C101.4,345.9,104,346.9,106,349z"/>
	<path class="st1" d="M65.2,335.9c-0.7,0.3-1.4,0.7-2.1,1c-6.7-0.3-13.4,0.8-20.1,1.2c-2.4,0.1-4.9,0.3-7.3-0.9
		c0.8-0.4,1.5-0.7,2.3-1.1c6.7,0.1,13.3-0.3,19.9-1.1C60.3,334.7,62.9,334.6,65.2,335.9z"/>
	<path class="st1" d="M77,323.8c0.4-0.3,0.8-0.7,1.3-1c7.8,0.1,15.5,1.4,22.8,4.1c-0.3,0.3-0.7,0.6-1,0.9
		C92.5,326,84.8,324.7,77,323.8z"/>
	<path class="st1" d="M26.1,275.8c-0.3,0.4-0.7,0.7-1,1.1c-1.6-7.5-5.4-13.8-9.7-20c3.7,0.6,4.4,4,6,6.5
		C23.7,267.2,25.5,271.4,26.1,275.8z"/>
	<path class="st1" d="M17,241.4c3.7,2.6,7.4,5.2,9.1,9.6C22.5,248.3,19.1,245.5,17,241.4z"/>
	<path class="st1" d="M13.6,254c-4.6-1.1-6.9-5.1-10.1-8.1C8.1,247.2,10.5,251,13.6,254z"/>
	<path class="st1" d="M7.9,233.9c3.7,1.4,6.1,4.3,8.6,7.1C12.6,240.1,10.1,237.2,7.9,233.9z"/>
	<path class="st1" d="M91,25.2c0,0.3,0,0.6,0,0.8c-8.9,1.1-13.9-4.1-17.9-11.1C78,20.2,82.9,25.5,91,25.2z"/>
	<path class="st1" d="M35.8,349.2c-6-0.4-11.8-1.4-17.3-3.9c-6.7-3.1-9.6-7.7-8.8-15c0.6-5.8,1.6-11.5,2.4-17.2
		c0.4-0.3,0.8-0.3,1.2,0c-0.7,4.8-1.2,9.5-2,14.3c-1.5,9.1,1.4,14.3,10,17.5c5.3,2,10.9,2.7,16.5,3.3
		C38,350.1,36.8,349.4,35.8,349.2z"/>
	<path class="st1" d="M13.3,313c-0.4,0-0.8,0-1.2,0c1.7-12.7,3.2-25.3,1-38.1c0.4-0.4,0.7-0.8,1.1-1.2c3.5,10.8,1.7,21.7,0.4,32.5
		C14.3,308.5,14.6,311,13.3,313z"/>
	<path class="st1" d="M35.8,349.2c0.7-0.4,1.4-0.7,2.1-1.1c4.4,0.6,9,0.2,13.2,1.7c-0.7,0.3-1.4,0.7-2.1,1
		C44.7,350.2,40.1,350.6,35.8,349.2z"/>
	<path class="st1" d="M698.9,58c3.9,1.5,7.3,3.9,10.1,7.1C704.8,63.9,701.6,61.4,698.9,58z"/>
	<path class="st1" d="M708.9,65c4.1,1.1,7.4,3.6,10.6,6.1C715.2,70.5,711.8,68.2,708.9,65z"/>
	<path class="st1" d="M684,43.4c2.8,3,6.6,5,8.1,9.1C688.7,50,685,47.9,684,43.4z"/>
	<path class="st1" d="M692.4,53c3.2,0.4,5,2.6,6.6,5.1C696,57.4,694.3,55.1,692.4,53z"/>
</g>
</svg>
