<svg id="Layer_1" data-name="Layer 1" xmlns="http://www.w3.org/2000/svg" viewBox="0 0 595 561"><defs><style>.cls-1{fill:#9735c8;}.cls-2{fill:#e0acf8;}.cls-3{fill:#dfaaf7;}</style></defs><path class="cls-1" d="M318.1,510.68c-72.56-.84-62.08,7.19-63.11-62.11-1-65.19,8.35-54.83-55.78-56.8-33.23-1-66.44,5.21-99-13.4-37.09-21.18-49.73-52.23-49.38-90.79.35-37.53,13.62-68.68,52-83.77,17.55-6.91,28.73-18.07,35.66-37.89,12.36-35.38,41.94-55,78.88-52,23.17,1.89,35.68-5.7,50.38-20.82,37.9-39,85.1-41.78,133.53-25.73,43.95,14.58,71.81,47.06,75,93.24,2.11,30.64,25,30.31,42.35,38.7,48.78,23.66,70.66,67.13,57.49,117.39-11.17,42.61-50.53,71.39-101.45,75.09-29.38,2.14-65.81-11.91-86.37,5.93-21.48,18.66-5.79,55.89-8.2,84.87C375.81,533.76,335.82,499.81,318.1,510.68Zm-128.81-137,.14-1.57c11.32,0,22.77,1.05,33.93-.29s29.9,7.3,29.9-12.56c0-20.21-19-10.36-29.9-12.26-9.6-1.69-21.8.72-25.55-10.39s6.62-18.32,14-24.19c33.12-26.46,61.75-57.35,89.55-89.06,11.87-13.54,23.42-15.67,34.79-.71,23.13,30.44,52.79,54.28,79.59,81C425,313,441.06,323,435.05,338.28c-5.56,14.14-22.56,6.92-34.63,8.55-8.12,1.09-18.32-.42-18.57,11.74-.23,11.29,8.56,13.56,17.44,13.28,29.59-.94,59.49,4.15,88.72-3.69,41.17-11.05,70.77-44,70.32-78.73-.57-44.24-30.9-66.12-67.18-76-25.49-6.92-32.85-16.19-34.07-42C455.22,132,433.7,101,395.32,87.94c-42.72-14.58-85.93-12.67-116.39,25-16.31,20.15-30.85,28.25-56.22,23.67-30.3-5.47-56,8.91-63.52,37.18-7.12,26.66-22.28,38.49-44.45,49.49C84.93,238,67.48,262.06,71,297.74c3.7,37.34,29.29,57.37,59.86,69.56C148.41,374.29,169.7,371.87,189.29,373.69ZM357,420.4h-.16c0-16.87.08-33.75,0-50.63-.07-10.25-1.66-18.21-14.23-22-41.1-12.46-62.68,2.44-63.24,45.38-.23,18.28,1.2,36.7-.57,54.82-3,30.93,4.92,45,40.69,44.87,34.49-.15,41.13-14.14,37.72-42.89C356,440.21,357,430.25,357,420.4Zm36.91-99.55c-20.46-23.18-39.23-45-58.74-66.23-6.82-7.41-13.82-20.8-26.35-6.46-19.79,22.65-45.27,40.77-61.25,72.69Z"/><path class="cls-2" d="M357,420.4c0,9.85-1,19.81.18,29.52,3.41,28.75-3.23,42.74-37.72,42.89-35.77.17-43.7-13.94-40.69-44.87,1.77-18.12.34-36.54.57-54.82.56-42.94,22.14-57.84,63.24-45.38,12.57,3.82,14.16,11.78,14.23,22,.11,16.88,0,33.76,0,50.63Z"/><path class="cls-3" d="M393.88,320.85H247.54c16-31.92,41.46-50,61.25-72.69,12.53-14.34,19.53-.95,26.35,6.46C354.65,275.81,373.42,297.67,393.88,320.85Z"/></svg>